<?xml version="1.0" encoding="UTF-8"?>
<svg id="Layer_1" data-name="Layer 1" xmlns="http://www.w3.org/2000/svg" version="1.1" viewBox="0 0 384 384">
  <defs>
    <style>
      .cls-1 {
        fill: #360ea5;
      }

      .cls-1, .cls-2 {
        stroke-width: 0px;
      }

      .cls-2 {
        display: none;
        fill: #fff;
      }
    </style>
  </defs>
  <path class="cls-1" d="M180,0c8,0,16,0,24,0,.96.21,1.91.54,2.89.61,29.76,2.25,57.61,10.77,83.06,26.34,49.81,30.48,80.34,74.47,91.11,131.96,1.31,6.97,1.98,14.05,2.94,21.09v24c-.21.97-.54,1.92-.62,2.9-2.81,36.12-14.74,68.96-36.25,98.05-30.51,41.27-71.13,66.75-121.69,76.07-7.09,1.31-14.29,2-21.44,2.98h-24c-.96-.21-1.91-.54-2.88-.62-38.25-3.03-72.67-16.17-102.82-39.85-38.81-30.49-62.75-70.13-71.42-118.81C1.65,217.86.94,210.91,0,204,0,196,0,188,0,180c.55-4.57,1.03-9.14,1.67-13.7,5.51-39.18,21.3-73.68,47.92-102.95C79.21,30.77,115.79,10.43,159.29,2.9c6.86-1.19,13.8-1.94,20.71-2.9ZM102.83,197.89v4.95c0,24.5-.01,48.99,0,73.49,0,11.21,6.17,17.4,17.38,17.42,12.62.03,25.25.01,37.87,0,1.31,0,2.62-.14,4.22-.23,0-2.79-.01-5.14,0-7.5.09-15.87-.44-31.77.46-47.59.99-17.18,18.24-29.32,35.04-25.75,14.62,3.11,23.77,14.79,23.86,30.67.09,15.25.01,30.49.03,45.74,0,1.44.13,2.89.21,4.67,1.74,0,3.1,0,4.45,0,12,0,24,0,35.99,0,13.08,0,18.81-5.67,18.81-18.63,0-24.25,0-48.49,0-72.74,0-1.44,0-2.87,0-4.51,3.09,0,5.59.12,8.08-.02,6.91-.39,11.82-3.76,14.28-10.28,2.36-6.26.63-12.62-4.83-17.21-29.08-24.44-58.13-48.91-87.38-73.14-11.59-9.6-27.46-9.36-39.01.27-28.99,24.15-57.88,48.44-86.78,72.7-5.53,4.65-7.3,10.77-5.17,17.12,2.13,6.35,7.62,10.29,14.86,10.57,2.36.09,4.72.01,7.62.01Z"/>
  <path class="cls-2" d="M0,204c.94,6.91,1.65,13.86,2.87,20.72,8.68,48.68,32.61,88.32,71.42,118.81,30.15,23.69,64.57,36.82,102.82,39.85.97.08,1.92.41,2.88.62H0v-180Z"/>
  <path class="cls-2" d="M204,384c7.15-.98,14.35-1.67,21.44-2.98,50.57-9.32,91.19-34.8,121.69-76.07,21.51-29.1,33.44-61.94,36.25-98.05.08-.98.41-1.93.62-2.9v180h-180Z"/>
  <path class="cls-2" d="M180,0c-6.9.95-13.84,1.71-20.71,2.9-43.51,7.54-80.08,27.87-109.71,60.46C22.97,92.62,7.18,127.12,1.67,166.3c-.64,4.55-1.12,9.13-1.67,13.7C0,120.06,0,60.12,0,0,60,0,120,0,180,0Z"/>
  <path class="cls-2" d="M384,180c-.97-7.03-1.64-14.12-2.94-21.09-10.77-57.5-41.31-101.48-91.11-131.96C264.5,11.38,236.65,2.86,206.89.61c-.97-.07-1.92-.4-2.89-.61,60,0,120,0,180,0v180Z"/>
  <path class="cls-2" d="M102.83,197.89c-2.9,0-5.27.08-7.62-.01-7.24-.28-12.73-4.22-14.86-10.57-2.13-6.35-.36-12.48,5.17-17.12,28.9-24.26,57.78-48.55,86.78-72.7,11.55-9.62,27.42-9.86,39.01-.27,29.25,24.23,58.3,48.71,87.38,73.14,5.47,4.59,7.2,10.96,4.83,17.21-2.46,6.51-7.37,9.89-14.28,10.28-2.49.14-4.98.02-8.08.02,0,1.64,0,3.08,0,4.51,0,24.25,0,48.49,0,72.74,0,12.96-5.73,18.63-18.81,18.63-12,0-24,0-35.99,0-1.35,0-2.7,0-4.45,0-.08-1.78-.21-3.22-.21-4.67-.01-15.25.06-30.49-.03-45.74-.09-15.89-9.25-27.56-23.86-30.67-16.79-3.58-34.05,8.57-35.04,25.75-.91,15.82-.37,31.73-.46,47.59-.01,2.36,0,4.72,0,7.5-1.6.09-2.91.23-4.22.23-12.62.02-25.25.03-37.87,0-11.21-.02-17.38-6.21-17.38-17.42-.01-24.5,0-48.99,0-73.49v-4.95Z"/>
</svg>