<?xml version="1.0" encoding="UTF-8"?>
<svg id="Layer_1" data-name="Layer 1" xmlns="http://www.w3.org/2000/svg" version="1.1" viewBox="0 0 341.75 353.7">
  <defs>
    <style>
      .cls-1 {
        fill: #36ab3b;
      }

      .cls-1, .cls-2 {
        stroke-width: 0px;
      }

      .cls-2 {
        display: none;
        fill: #fff;
      }
    </style>
  </defs>
  <path class="cls-2" d="M-21.12,370.75V-13.25h384v384H-21.12ZM170.95,349.86c94.89-.44,171.24-76.82,171.02-171.07-.22-94.78-77.26-171.47-171.86-171.08C75.29,8.1-.63,85.25-.12,180.71c.49,93.02,77.93,169.59,171.07,169.15Z"/>
  <path class="cls-1" d="M170.95,349.86C77.8,350.3.37,273.73-.12,180.71-.63,85.25,75.29,8.1,170.11,7.71c94.6-.39,171.64,76.3,171.86,171.08.22,94.26-76.13,170.63-171.02,171.07ZM220.35,284.64c13.9.02,21.12-2.44,26.58-8.33,14.21-15.32,14.4-37.12-.49-51.02-13.98-13.06-27.77-26.33-41.79-39.34-18.84-17.49-47.43-17.81-66.48-.49-14.8,13.46-29.23,27.33-43.69,41.15-6.62,6.33-9.9,14.28-10.1,23.47-.45,20.41,14.43,35.54,34.75,34.6,7.93-.37,15.98-1.54,23.64-3.6,18.78-5.06,37.31-5.77,56.18-.46,8.24,2.32,16.88,3.2,21.4,4.02ZM105.29,111.51c.12,11.4,2.61,21.7,9.59,30.48,10.64,13.39,26.62,13.31,37.25-.08,12.71-16.01,12.69-43.89-.06-59.84-.62-.78-1.28-1.54-1.97-2.26-9.86-10.3-23.55-10.32-33.3.11-8.39,8.97-11.26,20.03-11.51,31.59ZM236.54,112.05c-.13-10.88-2.61-21.05-9.44-29.76-10.69-13.63-26.74-13.59-37.46-.03-12.79,16.16-12.58,44.15.45,60.12,10.33,12.66,25.79,12.85,36.29.29,7.39-8.83,10.01-19.34,10.17-30.62ZM96.61,170.57c.03-13.31-4.05-25.77-10.56-33.06-5.24-5.88-11.63-9.54-19.76-8.58-9.35,1.11-16.39,8.42-17.5,19.15-.66,6.47-.02,13.15.61,19.68,1.27,13.09,8.21,22.59,19.88,28.33,8.73,4.29,16.77,1.64,22.01-6.54,3.98-6.21,5.06-13.18,5.31-18.98ZM245.13,169.13c1.06,5.36,1.73,10.84,3.28,16.06,2,6.72,6.81,10.96,13.73,12.46,8.26,1.79,14.6-1.49,19.7-7.83,11.89-14.74,15.83-31.2,8.94-49.07-5.72-14.83-22.13-17.07-32.55-5.04-8.26,9.53-12.45,20.64-13.11,33.41Z"/>
  <path class="cls-2" d="M220.35,284.64c-4.52-.82-13.16-1.7-21.4-4.02-18.87-5.31-37.41-4.6-56.18.46-7.66,2.06-15.71,3.24-23.64,3.6-20.32.94-35.2-14.19-34.75-34.6.2-9.19,3.48-17.14,10.1-23.47,14.46-13.82,28.89-27.69,43.69-41.15,19.05-17.33,47.63-17,66.48.49,14.02,13.02,27.8,26.29,41.79,39.34,14.89,13.9,14.69,35.7.49,51.02-5.46,5.89-12.68,8.35-26.58,8.33Z"/>
  <path class="cls-2" d="M105.29,111.51c.25-11.56,3.12-22.62,11.51-31.59,9.75-10.43,23.44-10.4,33.3-.11.69.72,1.35,1.48,1.97,2.26,12.75,15.95,12.77,43.84.06,59.84-10.63,13.38-26.61,13.46-37.25.08-6.98-8.78-9.47-19.08-9.59-30.48Z"/>
  <path class="cls-2" d="M236.54,112.05c-.17,11.28-2.79,21.79-10.17,30.62-10.5,12.55-25.96,12.37-36.29-.29-13.03-15.97-13.23-43.96-.45-60.12,10.73-13.56,26.78-13.59,37.46.03,6.83,8.71,9.3,18.89,9.44,29.76Z"/>
  <path class="cls-2" d="M96.61,170.57c-.26,5.79-1.33,12.77-5.31,18.98-5.24,8.18-13.29,10.83-22.01,6.54-11.68-5.74-18.61-15.24-19.88-28.33-.63-6.53-1.28-13.2-.61-19.68,1.1-10.74,8.15-18.05,17.5-19.15,8.13-.96,14.52,2.71,19.76,8.58,6.5,7.29,10.59,19.75,10.56,33.06Z"/>
  <path class="cls-2" d="M245.13,169.13c.66-12.78,4.84-23.88,13.11-33.41,10.42-12.03,26.83-9.79,32.55,5.04,6.89,17.87,2.95,34.32-8.94,49.07-5.11,6.34-11.44,9.61-19.7,7.83-6.92-1.5-11.73-5.74-13.73-12.46-1.55-5.22-2.22-10.7-3.28-16.06Z"/>
</svg>