<svg width="825" height="231" viewBox="0 0 825 231" fill="none" xmlns="http://www.w3.org/2000/svg">
<path d="M8 70L20 51L71 6L86 12L99 6H144H168L214 45L227 66L223 84L259 96L280 137L270 167L286 222L189 217H114H92L43 200L63 156V84L43 117L20 96L8 70Z" fill="white"/>
<path d="M145.293 15.7479C147.497 14.5779 149.632 13.2979 151.896 12.2779C158.171 9.43789 162.161 10.1179 167.099 14.8779C171.119 18.7479 174.81 22.9779 179.039 26.5879C185.354 31.9679 191.867 37.1379 198.571 42.0279C205.514 47.1079 212.427 52.1579 217.354 59.3679C221.873 65.9779 223.719 73.0679 220.756 80.8879C219.948 83.0079 217.624 84.0479 215.579 83.0979C215.11 82.8779 214.791 82.1279 214.601 81.5479C214.112 80.0679 213.723 78.5579 212.716 77.0479C212.337 78.3679 211.868 79.6579 211.619 80.9979C211.24 83.0279 210.232 84.1879 208.097 84.5879C205.913 84.9979 203.798 85.7679 201.623 86.3779C199.658 83.8679 197.793 81.2279 195.668 78.8279C190.451 72.9379 183.837 69.4879 176.096 68.2879C174.321 68.0179 173.962 67.0979 173.982 65.5779C174.032 60.0779 174.201 54.5679 174.002 49.0779C173.682 40.5179 168.964 34.1479 163.188 28.3979C163.109 28.3179 162.879 28.3879 162.47 28.3879C163.119 31.1379 163.917 33.8079 164.365 36.5379C166.071 46.8579 165.802 57.2479 165.572 67.6679C165.353 77.8479 165.752 88.0679 166.291 98.2479C166.47 101.658 167.717 105.078 168.864 108.368C170.261 112.358 170.201 115.748 167.368 119.268C162.211 125.688 158.57 132.908 158.929 141.428C159.059 144.518 160.156 147.578 160.894 150.628C161.044 151.248 161.572 151.778 162.111 152.638C160.006 157.118 158.021 162.498 155.068 167.278C152.146 172.008 148.255 176.128 144.904 180.678C154.38 175.588 163.587 170.128 170.62 161.348C171.857 163.158 173.014 164.838 174.231 166.618C173.064 167.938 171.747 169.178 170.71 170.618C162.44 182.118 158.121 195.098 156.435 209.058C156.405 209.308 156.415 209.558 156.415 209.808C156.385 214.588 156.385 214.528 151.787 215.228C147.108 215.938 142.41 216.618 137.781 217.608C132.714 218.678 127.656 218.818 122.529 218.588C124.584 216.438 126.489 214.418 128.424 212.438C133.302 207.448 132.674 196.388 126.26 190.448C125.142 189.418 124.484 187.888 123.606 186.588C125.033 185.898 126.399 184.978 127.896 184.548C136.564 182.068 143.307 177.168 147.467 169.038C148.275 167.458 148.694 165.668 149.103 163.878C139.597 171.938 128.275 172.818 116.683 172.928C108.424 173.008 100.174 172.898 92.3634 169.868C88.6426 168.428 85.2211 166.218 81.6898 164.358C83.2859 171.838 88.0242 177.258 94.947 181.058C92.6427 182.418 87.7648 181.908 86.079 180.128C80.2135 173.948 74.8368 167.498 71.6945 159.328C69.7294 154.218 66.8166 149.488 64.5422 144.488C63.6344 142.488 62.9561 140.258 62.7766 138.078C62.0085 128.958 60.9611 119.818 61.001 110.688C61.0309 103.838 62.4773 96.9879 63.4848 90.1679C64.8913 80.5879 65.3901 71.0279 65.0011 61.3079C64.5622 50.5179 64.7018 39.6379 68.3628 29.1979C68.4426 28.9879 68.3628 28.7179 68.3628 27.9379C67.5548 28.4579 66.9163 28.7079 66.4974 29.1679C60.4324 35.7579 55.7839 42.8279 56.532 52.4879C57.8687 69.9679 54.507 86.8379 49.0006 103.308C47.8535 106.728 45.8684 109.898 43.9731 113.008C43.1252 114.408 41.5491 115.358 40.0627 116.748C39.3744 115.628 38.9555 114.938 38.5265 114.258C33.9379 107.138 29.1497 100.128 24.8204 92.8479C22.4662 88.8879 20.8801 84.4679 19.0148 80.2279C18.5858 79.2579 18.4561 78.1679 18.0372 76.4979C15.7927 80.8279 15.5334 84.8679 15.9224 89.4879C15.1344 88.7879 14.6256 88.4379 14.2465 87.9779C7.57305 79.9679 6.80494 70.2579 12.1617 61.2779C16.1718 54.5579 21.7081 49.1579 28.1721 45.0479C40.9206 36.9379 51.8137 26.7679 62.4175 16.1479C69.2705 9.28789 73.7694 8.9879 82.1986 13.9079C83.2659 14.5279 84.2934 15.2079 85.3109 15.8379C95.9945 5.0379 134.799 5.00789 145.273 15.7479H145.293ZM80.9417 98.3279C80.7521 98.2179 80.5626 98.1079 80.383 97.9979C79.575 98.8979 78.6374 99.7079 77.979 100.708C72.4925 109.008 76.6423 122.498 85.8396 126.098C87.3558 126.688 87.8945 127.488 88.3035 129.048C89.3808 133.218 90.3584 137.518 92.1839 141.378C100.823 159.608 125.073 158.068 134.05 147.708C138.749 142.288 141.193 135.988 142.46 129.058C142.639 128.098 143.377 126.748 144.165 126.458C155.158 122.428 156.654 109.548 153.133 101.948C152.435 100.448 151.108 99.2379 150.061 97.8879C149.542 99.2279 149.652 100.148 149.532 101.048C149.043 104.738 149.093 108.648 147.826 112.048C144.475 121.028 130.27 123.048 124.833 115.188C120.424 108.798 119.167 98.2179 128.993 93.3079C134.409 90.5979 137.412 86.0379 136.784 79.7079C136.155 73.3979 132.125 69.9279 126.399 68.3279C118.878 66.2279 111.257 66.2579 103.755 68.4279C99.0469 69.7879 95.4059 72.5479 94.0493 77.5779C92.3435 83.8779 95.2962 89.9279 101.78 93.5279C107.027 96.4379 109.421 100.598 108.793 105.898C108.045 112.098 106.109 117.308 99.1566 119.208C90.4382 121.588 83.3557 117.578 81.5701 108.708C81.1013 106.358 81.1312 103.908 80.9816 101.508C80.9117 100.448 80.9716 99.3879 80.9716 98.3279H80.9417ZM74.9864 59.0579C75.7046 60.9579 76.5525 64.3979 78.2483 67.3379C80.7621 71.7079 86.6176 72.4779 90.3783 69.3879C97.0718 63.8979 97.0718 51.2879 90.3783 45.8479C87.1463 43.2179 83.3258 43.2479 80.1436 45.9379C76.5725 48.9579 75.4353 53.0379 74.9764 59.0579H74.9864ZM135.247 59.1079C135.816 60.7079 136.514 64.1079 138.17 66.9579C141.312 72.3979 148.086 72.6779 151.936 67.8879C156.415 62.3279 156.365 52.7779 151.846 47.2179C148.714 43.3679 144.016 42.8079 140.205 45.9979C136.724 48.9079 135.507 52.9079 135.247 59.1079ZM98.7576 43.1579C97.6105 36.5979 90.0092 30.9279 83.8744 31.4079C78.1585 31.8579 72.0636 37.0779 72.0137 41.9179C81.0215 36.7679 89.8696 36.1079 98.7576 43.1479V43.1579ZM158.679 42.0379C157.722 36.0879 151.008 31.1079 144.953 31.3979C139.587 31.6579 132.275 38.0179 131.985 42.9779C140.594 36.4079 149.412 36.5279 158.679 42.0379Z" fill="#E5844E"/>
<path d="M204.187 95.6079C212.067 89.3379 223.16 88.9979 232.277 95.7179C231.409 96.2079 230.661 96.6179 229.933 97.0279C226.382 99.0479 223.708 101.848 222.97 105.978C222.691 107.528 223.09 109.228 223.299 110.838C223.628 113.268 224.257 115.678 224.407 118.118C224.586 121.098 224.147 124.118 224.407 127.088C224.826 131.748 227.489 134.778 232.098 135.738C235.509 136.448 239 136.728 242.422 137.408C248.148 138.558 253.106 140.888 256.128 146.348C258.632 150.868 258.452 155.298 256.158 159.708C252.198 167.338 245.704 172.288 238.322 176.228C216.317 187.988 193.463 178.048 182.4 163.668C178.061 158.028 176.595 151.958 180.635 145.368C182.799 141.838 185.842 139.478 189.732 138.448C193.164 137.528 196.715 136.968 200.246 136.518C209.045 135.408 212.346 131.668 212.047 122.768C211.977 120.608 211.638 118.448 211.658 116.288C211.668 114.828 211.768 113.188 212.406 111.938C214.8 107.268 213.095 103.468 210.002 100.118C208.356 98.3379 206.132 97.0779 204.187 95.5979V95.6079ZM236.517 148.388C234.312 149.748 232.357 151.368 230.102 152.258C226.89 153.528 222.651 151.268 221.264 148.008C219.908 144.798 220.556 143.528 224.756 141.198C224.905 141.118 225.075 141.068 225.185 140.948C225.713 140.358 226.741 139.628 226.631 139.188C226.442 138.448 225.644 137.558 224.905 137.318C220.287 135.788 215.608 135.768 211.01 137.358C210.301 137.598 209.523 138.558 209.414 139.288C209.334 139.778 210.301 140.528 210.93 140.998C211.578 141.498 212.396 141.778 213.104 142.198C215.349 143.538 215.838 144.928 214.97 147.438C213.204 152.518 206.92 154.088 202.491 150.528C201.583 149.798 200.755 148.978 199.618 147.958C200.994 156.698 209.444 158.468 218.062 152.288C227.03 158.388 234.931 156.738 236.517 148.388Z" fill="white"/>
<path d="M57.6489 156.948C63.7938 168.538 74.3277 174.478 84.7918 180.438C86.6672 181.508 89.0613 182.398 91.1362 182.258C96.1637 181.908 100.473 184.408 105.171 185.208C105.969 185.348 107.186 186.378 107.186 187.008C107.186 187.888 106.418 188.978 105.66 189.618C100.114 194.288 97.8994 200.148 99.5653 207.218C100.533 211.338 103.386 214.318 106.608 216.898C107.226 217.398 107.905 217.828 108.992 218.608C103.316 219.068 98.2984 218.658 93.2409 217.658C86.328 216.298 79.3752 215.098 72.3925 214.148C69.5495 213.758 66.5968 214.168 63.694 214.278C59.7537 214.428 56.3422 213.248 53.5192 210.438C51.165 208.088 48.5215 206.438 45.0601 206.118C42.7857 205.908 41.6086 204.448 41.7981 201.958C42.9752 186.198 48.0826 171.778 56.3721 158.418C56.6215 158.008 57.0005 157.678 57.629 156.948H57.6489Z" fill="#E5844E"/>
<path d="M250.592 179.608C250.971 188.528 250.173 197.058 242.382 203.228C240.956 204.358 239.489 205.608 238.532 207.118C234.432 213.548 227.988 215.298 221.135 215.648C216.885 215.868 212.536 215.238 208.307 214.518C204.466 213.868 201.244 211.878 198.82 208.588C197.254 206.468 195.349 204.538 193.344 202.808C188.306 198.468 185.722 193.038 185.603 186.418C185.563 184.008 185.603 181.608 185.603 179.178C185.682 179.168 185.922 179.078 185.972 179.138C192.007 187.288 200.915 189.858 210.222 191.288C221.524 193.028 232.457 191.438 242.552 185.888C245.455 184.298 247.859 181.788 250.612 179.598L250.592 179.608Z" fill="white"/>
<path d="M179.702 108.092C176.31 98.9524 174.146 89.8924 177.667 80.3424C178.365 78.4424 179.173 77.9324 181.119 78.7024C187.403 81.2024 191.882 85.7224 195.433 91.2724C195.782 91.8224 195.593 93.2724 195.114 93.7024C192.53 96.0124 189.657 98.0024 187.124 100.352C184.59 102.702 182.316 105.342 179.702 108.092Z" fill="#FC5454"/>
<path d="M262.293 108.498C257.944 102.168 252.537 97.9279 247.081 93.7179C246.612 93.3579 246.312 91.9979 246.612 91.5479C250.193 86.0279 254.592 81.3879 260.827 78.7879C262.832 77.9479 263.809 78.4479 264.517 80.5079C266.971 87.6479 266.712 94.7379 264.488 101.848C263.849 103.888 263.151 105.908 262.303 108.508L262.293 108.498Z" fill="#FC5454"/>
<path d="M115.446 191.258C120.723 191.278 124.813 195.668 124.733 201.228C124.663 206.548 120.424 210.858 115.286 210.838C110.159 210.818 106.069 206.468 106.079 201.038C106.079 195.238 109.92 191.228 115.446 191.248V191.258Z" fill="#BEB0B0"/>
<path d="M164.634 209.888C163.587 204.058 169.921 183.008 174.68 176.878C174.56 177.698 174.43 178.528 174.31 179.348C173.682 184.048 173.054 188.748 172.425 193.448C172.365 193.858 172.385 194.318 172.206 194.668C169.772 199.608 167.298 204.528 164.624 209.888H164.634Z" fill="white"/>
<path d="M271.77 209.168C265.575 199.348 261.724 188.828 261.904 176.338C267.151 187.168 270.772 197.768 271.77 209.168Z" fill="white"/>
<path d="M234.721 124.618C242.572 130.038 246.881 128.308 248.338 119.358C250.103 121.008 250.422 124.278 249.106 127.038C247.639 130.098 244.258 132.008 241.185 131.498C237.634 130.908 235.25 128.478 234.721 124.628V124.618Z" fill="#BEF521"/>
<path d="M207.777 123.717C207.511 127.698 205.381 131.442 201.802 132.358C198.853 133.111 195.403 131.498 193.486 128.858C191.314 125.869 191.208 121.066 193.487 117.358C193.902 121.306 192.756 124.92 197.314 125.858C200.796 126.578 205.2 127.273 207.788 123.717H207.777Z" fill="#BEF521"/>
<path d="M164.425 141.278C164.614 132.478 168.166 125.288 174.29 119.338C174.56 119.468 174.829 119.608 175.108 119.738L164.425 141.278Z" fill="white"/>
<path d="M260.966 119.828C266.712 122.788 272.737 134.998 271.71 141.418C268.029 134.028 264.498 126.928 260.966 119.828Z" fill="white"/>
<path d="M241.235 120.678C240.208 121.368 239.22 122.538 238.133 122.638C236.557 122.778 235.44 121.378 235.849 119.858C236.118 118.868 237.445 117.508 238.303 117.508C239.29 117.508 240.278 118.818 241.265 119.568C241.255 119.938 241.245 120.308 241.235 120.678Z" fill="white"/>
<path d="M200.775 120.548C199.767 121.288 198.829 122.498 197.752 122.648C196.166 122.868 195.019 121.478 195.358 119.958C195.577 118.958 196.864 117.538 197.712 117.498C198.7 117.458 199.747 118.738 200.765 119.438C200.765 119.808 200.765 120.168 200.765 120.538L200.775 120.548Z" fill="white"/>
<path d="M80.9411 98.3279C80.9411 99.3879 80.8912 100.448 80.9511 101.508C81.1007 103.908 81.0708 106.368 81.5396 108.708C83.3252 117.588 90.4077 121.588 99.1261 119.208C106.089 117.308 108.024 112.108 108.762 105.898C109.401 100.598 106.997 96.4379 101.75 93.5279C95.2557 89.9279 92.313 83.8879 94.0188 77.5779C95.3754 72.5479 99.0164 69.7879 103.725 68.4279C111.236 66.2579 118.847 66.2279 126.369 68.3279C132.095 69.9279 136.125 73.4079 136.753 79.7079C137.392 86.0279 134.379 90.5979 128.962 93.3079C119.147 98.2179 120.394 108.798 124.803 115.188C130.239 123.058 144.444 121.028 147.796 112.048C149.073 108.648 149.013 104.738 149.502 101.048C149.621 100.158 149.522 99.2279 150.03 97.8879C151.068 99.2279 152.404 100.438 153.103 101.948C156.624 109.548 155.128 122.428 144.135 126.458C143.337 126.748 142.599 128.098 142.429 129.058C141.162 135.988 138.718 142.288 134.02 147.708C125.042 158.068 100.792 159.608 92.1534 141.378C90.3279 137.518 89.3503 133.218 88.273 129.048C87.874 127.488 87.3253 126.698 85.8091 126.098C76.6118 122.498 72.462 109.008 77.9485 100.708C78.6069 99.7079 79.5445 98.8979 80.3525 97.9979C80.5421 98.1079 80.7316 98.2179 80.9112 98.3279H80.9411ZM131.835 78.2579C131.017 75.8479 129.571 74.0079 127.157 73.3979C119.306 71.4079 111.396 71.3779 103.545 73.4279C101.061 74.0779 99.4952 76.1879 99.3356 78.0079C110.059 73.1079 120.813 73.0379 131.825 78.2579H131.835Z" fill="black"/>
<path d="M74.9863 59.058C75.4352 53.038 76.5824 48.958 80.1536 45.938C83.3357 43.248 87.1463 43.218 90.3883 45.848C97.0817 51.288 97.0717 63.898 90.3883 69.388C86.6276 72.478 80.772 71.708 78.2582 67.338C76.5624 64.388 75.7245 60.958 74.9963 59.058H74.9863ZM79.8942 52.268C77.2906 56.808 78.4079 63.448 81.9691 66.298C84.4928 68.318 87.8046 67.718 89.4705 64.928C83.6848 65.988 79.7545 61.448 79.9042 52.268H79.8942ZM84.024 51.218C84.024 51.598 84.024 51.968 84.034 52.348C85.0415 53.058 86.1687 54.428 87.0365 54.288C87.9942 54.128 89.271 52.618 89.3708 51.598C89.4406 50.838 87.8844 49.268 87.0066 49.238C86.039 49.198 85.0115 50.498 84.014 51.218H84.024Z" fill="black"/>
<path d="M135.247 59.1079C135.506 52.8979 136.713 48.9079 140.205 45.9979C144.015 42.8079 148.714 43.3779 151.846 47.2179C156.375 52.7679 156.415 62.3279 151.936 67.8879C148.085 72.6779 141.312 72.3879 138.17 66.9579C136.524 64.1079 135.826 60.7079 135.247 59.1079ZM150.659 51.7279C150.898 61.1679 148.494 64.5479 141.412 65.1579C143.367 67.9879 146.649 68.2879 149.203 65.8779C152.604 62.6679 153.362 56.3779 150.659 51.7279ZM140.783 51.1379C140.783 51.5079 140.783 51.8879 140.783 52.2579C141.781 52.9979 142.868 54.4279 143.746 54.2979C144.714 54.1579 146.04 52.6779 146.16 51.6479C146.25 50.8879 144.724 49.2779 143.836 49.2179C142.868 49.1579 141.811 50.4379 140.793 51.1379H140.783Z" fill="black"/>
<path d="M98.7576 43.158C89.8695 36.108 81.0214 36.7679 72.0137 41.9279C72.0635 37.0879 78.1585 31.8679 83.8743 31.4179C90.0092 30.9379 97.6104 36.6079 98.7576 43.1679V43.158Z" fill="black"/>
<path d="M158.679 42.0379C149.412 36.5279 140.584 36.4079 131.985 42.9779C132.284 38.0279 139.586 31.6579 144.953 31.3979C151.008 31.1079 157.721 36.0879 158.679 42.0379Z" fill="black"/>
<path d="M236.517 148.388C234.931 156.738 227.03 158.388 218.063 152.288C209.434 158.468 200.995 156.698 199.618 147.958C200.755 148.978 201.583 149.798 202.491 150.528C206.92 154.088 213.205 152.518 214.97 147.438C215.838 144.928 215.359 143.538 213.105 142.198C212.397 141.778 211.579 141.498 210.93 140.998C210.312 140.528 209.344 139.768 209.414 139.288C209.524 138.558 210.302 137.598 211.01 137.358C215.619 135.778 220.297 135.788 224.906 137.318C225.644 137.558 226.442 138.448 226.631 139.188C226.741 139.628 225.714 140.358 225.185 140.948C225.075 141.068 224.906 141.118 224.756 141.198C220.556 143.538 219.908 144.808 221.265 148.008C222.651 151.268 226.891 153.528 230.103 152.258C232.357 151.368 234.312 149.748 236.517 148.388Z" fill="black"/>
<path d="M131.835 78.2579C120.823 73.0379 110.069 73.1179 99.3457 78.0079C99.4953 76.1779 101.061 74.078 103.555 73.428C111.406 71.378 119.306 71.4079 127.167 73.3979C129.571 74.0079 131.027 75.8479 131.845 78.2579H131.835Z" fill="white"/>
<path d="M79.8936 52.2679C79.744 61.4579 83.6743 65.9879 89.46 64.9279C87.7941 67.7179 84.4923 68.3179 81.9585 66.2979C78.3973 63.4479 77.2801 56.8079 79.8837 52.2679H79.8936Z" fill="#1DB2E1"/>
<path d="M84.0239 51.218C85.0215 50.498 86.0389 49.198 87.0165 49.238C87.8944 49.268 89.4505 50.838 89.3807 51.598C89.2809 52.618 88.0041 54.128 87.0465 54.288C86.1786 54.438 85.0514 53.058 84.0439 52.348C84.0439 51.968 84.0439 51.598 84.0339 51.218H84.0239Z" fill="white"/>
<path d="M150.659 51.7279C153.352 56.3779 152.604 62.6679 149.202 65.8779C146.649 68.2879 143.367 67.9879 141.412 65.1579C148.494 64.5479 150.898 61.1679 150.659 51.7279Z" fill="#1DB2E1"/>
<path d="M140.783 51.1379C141.801 50.4379 142.858 49.1579 143.826 49.2179C144.714 49.2779 146.24 50.8879 146.15 51.6479C146.03 52.6679 144.704 54.1579 143.736 54.2979C142.868 54.4279 141.771 52.9979 140.773 52.2579C140.773 51.8879 140.773 51.5079 140.773 51.1379H140.783Z" fill="white"/>
<g filter="url(#filter0_d_9_101)">
<path fill-rule="evenodd" clip-rule="evenodd" d="M88.3232 15.8379C99.0068 5.03791 137.811 5.00791 148.285 15.7479H148.305C149.033 15.3648 149.755 14.9675 150.476 14.5704C151.938 13.7652 153.399 12.961 154.909 12.2779C161.183 9.44791 165.173 10.1179 170.111 14.8779C171.608 16.3192 173.06 17.8118 174.51 19.3036C176.955 21.8173 179.397 24.3286 182.051 26.5879C188.366 31.9679 194.89 37.1379 201.583 42.0279L201.588 42.0312C208.529 47.1101 215.43 52.1595 220.367 59.3679C224.896 65.9779 226.741 73.0679 223.768 80.8879C222.97 83.0079 220.636 84.0479 218.591 83.0979C218.122 82.8779 217.803 82.1179 217.614 81.5479C217.54 81.3256 217.469 81.1026 217.398 80.879C216.994 79.6143 216.584 78.3311 215.728 77.0479C215.611 77.4647 215.482 77.8805 215.353 78.2969C215.078 79.1892 214.801 80.0843 214.631 80.9979C214.242 83.0379 213.234 84.1879 211.11 84.5879C209.578 84.8754 208.081 85.3348 206.573 85.7975C205.93 85.9947 205.286 86.1926 204.636 86.3779C203.992 85.5597 203.361 84.7277 202.729 83.8946C201.422 82.1722 200.112 80.4456 198.68 78.8279C193.463 72.9279 186.85 69.4879 179.109 68.2879C177.343 68.0179 176.984 67.1079 176.994 65.5779C177.006 64.2314 177.026 62.8842 177.045 61.5369C177.105 57.3811 177.165 53.2238 177.014 49.0779C176.695 40.5179 171.976 34.1479 166.201 28.3979C166.151 28.3481 166.043 28.3564 165.87 28.3698C165.766 28.3779 165.637 28.3879 165.482 28.3879C165.689 29.2629 165.91 30.1298 166.131 30.9931C166.603 32.843 167.072 34.6765 167.378 36.5379C169.049 46.65 168.824 56.8293 168.599 67.0381L168.585 67.6679C168.365 77.8579 168.764 88.0679 169.303 98.2479C169.474 101.513 170.619 104.778 171.72 107.921C171.772 108.07 171.825 108.219 171.877 108.368C173.263 112.358 173.213 115.748 170.38 119.268C165.223 125.688 161.582 132.918 161.941 141.428C162.036 143.691 162.65 145.939 163.262 148.178C163.486 148.995 163.709 149.812 163.906 150.628C164.004 151.026 164.263 151.39 164.581 151.837C164.75 152.075 164.936 152.336 165.123 152.638C164.494 153.975 163.876 155.39 163.242 156.844C161.746 160.273 160.154 163.921 158.081 167.278C156.263 170.213 154.071 172.92 151.867 175.642C150.527 177.297 149.183 178.958 147.916 180.678C157.392 175.588 166.6 170.128 173.632 161.348C174.181 162.147 174.713 162.924 175.241 163.698C175.904 164.666 176.561 165.628 177.243 166.618C176.898 167.002 176.541 167.382 176.183 167.762C175.322 168.678 174.455 169.601 173.722 170.618C165.452 182.108 161.133 195.098 159.447 209.058C159.427 209.308 159.427 209.558 159.427 209.808C159.408 214.527 159.398 214.528 154.945 215.206L154.799 215.228C154.229 215.316 153.66 215.403 153.09 215.49C148.978 216.118 144.859 216.747 140.793 217.608C135.726 218.678 130.659 218.818 125.541 218.588C126.107 217.996 126.661 217.414 127.207 216.841C128.647 215.329 130.034 213.873 131.437 212.438C136.315 207.448 135.696 196.388 129.272 190.448C128.512 189.748 127.965 188.817 127.417 187.884C127.158 187.444 126.9 187.004 126.618 186.588C127.074 186.368 127.522 186.124 127.971 185.88C128.926 185.36 129.882 184.841 130.908 184.548C139.586 182.068 146.32 177.178 150.479 169.038C151.288 167.458 151.706 165.678 152.115 163.878C142.609 171.938 131.287 172.818 119.696 172.928C111.436 173.008 103.176 172.898 95.3757 169.868C92.8173 168.871 90.4003 167.514 87.9918 166.163C86.8977 165.549 85.8052 164.936 84.7021 164.358C86.2982 171.838 91.0364 177.258 97.9593 181.058C95.655 182.418 90.7871 181.908 89.0913 180.128C83.2258 173.948 77.849 167.488 74.7068 159.328C73.5371 156.286 72.0316 153.379 70.5249 150.47C69.5003 148.491 68.4751 146.512 67.5545 144.488C66.6467 142.488 65.9684 140.258 65.7889 138.078C65.6304 136.197 65.4597 134.315 65.2889 132.433C64.6317 125.188 63.9737 117.935 64.0133 110.688C64.0436 105.487 64.887 100.275 65.728 95.0783C65.9931 93.4398 66.258 91.8027 66.4971 90.1679C67.9136 80.5879 68.4124 71.0279 68.0134 61.3079C67.5745 50.5179 67.7141 39.6279 71.3751 29.1979C71.4162 29.0684 71.4089 28.9251 71.3959 28.6701C71.3869 28.4918 71.3751 28.2589 71.3751 27.9379C71.0997 28.1151 70.8441 28.2609 70.6101 28.3944C70.1574 28.6527 69.7859 28.8647 69.5097 29.1679C63.4546 35.7579 58.8061 42.8279 59.5443 52.4879C60.891 69.9679 57.5193 86.8379 52.0129 103.308C50.9242 106.554 49.0807 109.574 47.2755 112.532C47.1787 112.691 47.0819 112.849 46.9854 113.008C46.4107 113.957 45.5017 114.703 44.5128 115.516C44.0425 115.902 43.5541 116.303 43.075 116.748C42.8527 116.386 42.6596 116.069 42.4852 115.783C42.1194 115.183 41.836 114.718 41.5388 114.258C40.2129 112.205 38.8713 110.161 37.5297 108.118C34.2181 103.073 30.9067 98.0289 27.8327 92.8479C26.1133 89.9557 24.8036 86.818 23.4956 83.6844C23.0127 82.5275 22.53 81.3711 22.0271 80.2279C21.7554 79.5989 21.6053 78.9194 21.4165 78.0641C21.3141 77.6004 21.2003 77.085 21.0495 76.4979C18.805 80.8279 18.5457 84.8679 18.9347 89.4879C18.6612 89.245 18.4213 89.0442 18.2088 88.8663C17.8091 88.5317 17.5063 88.2782 17.2588 87.9779C10.5754 79.9679 9.81724 70.2679 15.174 61.2779C19.1841 54.5579 24.7204 49.1579 31.1844 45.0479C43.9329 36.9379 54.826 26.7679 65.4297 16.1479C72.2828 9.28791 76.7717 8.98791 85.2108 13.9079C85.9088 14.3171 86.598 14.7525 87.2785 15.1824C87.629 15.4038 87.9773 15.6237 88.3232 15.8379ZM207.186 95.6128C207.788 96.0704 208.416 96.5061 209.046 96.9427C210.45 97.916 211.86 98.8936 212.995 100.128C216.087 103.478 217.783 107.288 215.399 111.948C214.761 113.208 214.661 114.838 214.651 116.298C214.639 117.532 214.745 118.767 214.851 120.001C214.931 120.927 215.01 121.852 215.04 122.778C215.329 131.678 212.027 135.418 203.239 136.528C199.708 136.978 196.157 137.538 192.725 138.458C188.835 139.498 185.792 141.848 183.628 145.378C179.588 151.968 181.054 158.038 185.393 163.678C196.466 178.058 219.309 187.998 241.315 176.238C248.697 172.288 255.191 167.348 259.151 159.718C261.445 155.308 261.625 150.878 259.121 146.358C256.098 140.898 251.131 138.558 245.415 137.418C243.769 137.09 242.102 136.855 240.434 136.62C238.646 136.368 236.856 136.115 235.09 135.748C230.482 134.778 227.818 131.748 227.399 127.098C227.255 125.506 227.314 123.894 227.374 122.281C227.426 120.894 227.478 119.506 227.399 118.128C227.313 116.622 227.037 115.128 226.761 113.633C226.59 112.706 226.418 111.778 226.292 110.848C226.249 110.535 226.2 110.219 226.151 109.901C225.947 108.583 225.738 107.237 225.963 105.988C226.701 101.858 229.374 99.0579 232.926 97.0379C233.664 96.6179 234.402 96.2079 235.27 95.7279C226.145 89.0097 215.066 89.3477 207.186 95.6128ZM60.0812 157.569C60.2422 157.395 60.4274 157.193 60.6416 156.948H60.6615C66.7757 168.461 77.2015 174.399 87.5972 180.32L87.8044 180.438C89.6898 181.508 92.0739 182.398 94.1488 182.258C97.3121 182.038 100.187 182.942 103.057 183.844C104.749 184.376 106.438 184.908 108.184 185.208C108.982 185.348 110.199 186.388 110.199 187.008C110.199 187.888 109.421 188.988 108.673 189.618C103.127 194.288 100.912 200.148 102.578 207.218C103.546 211.338 106.388 214.318 109.621 216.898C110.034 217.232 110.47 217.536 111.042 217.933C111.325 218.13 111.641 218.35 112.005 218.608C106.329 219.068 101.301 218.648 96.2536 217.658C89.3406 216.298 82.3878 215.098 75.4051 214.148C73.3315 213.871 71.1995 214.009 69.0711 214.146C68.2814 214.197 67.4922 214.248 66.7066 214.278C62.7663 214.428 59.3548 213.248 56.5317 210.438C54.1776 208.088 51.5341 206.438 48.0727 206.118C45.7983 205.908 44.6212 204.448 44.8107 201.958C45.9878 186.198 51.0952 171.778 59.3847 158.418C59.5491 158.148 59.7698 157.908 60.0812 157.569ZM253.565 179.624C252.688 180.319 251.849 181.047 251.018 181.767C249.238 183.309 247.499 184.816 245.525 185.898C235.429 191.448 224.497 193.038 213.194 191.298C203.887 189.868 194.989 187.298 188.944 179.148C188.916 179.106 188.79 179.138 188.686 179.164C188.642 179.175 188.602 179.185 188.575 179.188C188.575 179.995 188.571 180.802 188.566 181.607C188.558 183.216 188.549 184.822 188.575 186.428C188.695 193.048 191.289 198.478 196.316 202.818C198.321 204.548 200.227 206.478 201.793 208.598C204.217 211.888 207.439 213.868 211.279 214.528C215.509 215.248 219.858 215.878 224.107 215.658C230.961 215.298 237.405 213.548 241.504 207.128C242.462 205.618 243.928 204.368 245.355 203.238C253.144 197.069 253.943 188.541 253.565 179.624ZM181.953 105.562C181.189 106.39 180.409 107.234 179.598 108.088C176.206 98.9579 174.031 89.8879 177.563 80.3379C178.261 78.4379 179.069 77.9179 181.014 78.6979C187.288 81.1979 191.777 85.7179 195.329 91.2679C195.678 91.8179 195.488 93.2679 195.009 93.6979C193.792 94.7904 192.508 95.8114 191.223 96.8327C189.792 97.9708 188.36 99.1094 187.019 100.348C185.273 101.968 183.649 103.726 181.953 105.562ZM263.044 106.241C262.807 106.95 262.558 107.696 262.293 108.498L262.283 108.488C257.934 102.158 252.527 97.9179 247.071 93.7079C246.602 93.3479 246.303 91.9879 246.602 91.5379C250.183 86.0179 254.582 81.3779 260.817 78.7779C262.832 77.9479 263.799 78.4379 264.508 80.4979C266.962 87.6379 266.692 94.7279 264.478 101.838C264.043 103.249 263.575 104.651 263.044 106.241ZM109.072 201.048C109.082 195.248 112.912 191.238 118.439 191.258V191.268C123.706 191.288 127.806 195.678 127.726 201.238C127.646 206.548 123.406 210.868 118.279 210.848C113.152 210.828 109.072 206.478 109.072 201.048ZM167.634 209.873C168.31 208.519 168.972 207.193 169.624 205.888C171.549 202.031 173.384 198.355 175.208 194.668C175.336 194.411 175.363 194.108 175.389 193.807C175.4 193.686 175.411 193.565 175.428 193.448L177.313 179.348C177.423 178.519 177.552 177.7 177.682 176.882L177.682 176.878C172.928 183.003 166.59 204.023 167.634 209.873ZM274.762 209.168C273.755 197.768 270.144 187.178 264.897 176.338C264.717 188.818 268.568 199.338 274.762 209.168ZM241.175 131.628C237.614 131.048 235.24 128.618 234.711 124.758V124.748C242.562 130.178 246.871 128.438 248.328 119.488C250.093 121.148 250.422 124.408 249.096 127.168C247.629 130.228 244.238 132.138 241.175 131.628ZM207.178 124.683C204.755 127.928 201.339 127.947 198.082 127.288C194.404 126.547 194.168 123.499 193.925 120.354C193.886 119.848 193.846 119.34 193.792 118.838C191.668 122.238 191.777 125.828 193.812 128.568C195.608 130.988 198.74 132.168 201.503 131.478C204.851 130.639 206.924 128.324 207.178 124.683ZM178.101 119.738L167.418 141.278C167.607 132.478 171.148 125.288 177.283 119.338C177.451 119.416 177.614 119.497 177.777 119.578C177.885 119.632 177.993 119.686 178.101 119.738ZM268.248 128.444C266.811 125.559 265.384 122.694 263.959 119.828C269.705 122.788 275.73 134.998 274.702 141.418C272.513 137.011 270.37 132.707 268.248 128.444ZM244.258 119.568L244.228 120.678C243.911 120.89 243.599 121.149 243.286 121.407C242.582 121.987 241.878 122.569 241.125 122.638C239.549 122.778 238.422 121.378 238.841 119.858C239.11 118.868 240.437 117.508 241.295 117.508C241.981 117.508 242.667 118.145 243.353 118.782C243.655 119.062 243.956 119.342 244.258 119.568ZM203.768 119.448V120.548L203.778 120.558C203.474 120.783 203.175 121.053 202.876 121.322C202.195 121.937 201.511 122.554 200.755 122.658C199.179 122.868 198.022 121.478 198.361 119.968C198.581 118.958 199.857 117.538 200.715 117.508C201.409 117.48 202.131 118.097 202.852 118.713C203.159 118.975 203.465 119.236 203.768 119.448ZM54.1677 116.358C54.1677 116.358 51.1752 126.483 42.6961 124.358C34.2169 122.233 6.78485 85.3579 6.78485 85.3579C6.78485 85.3579 5.41414 83.3579 4.29102 78.8579C3.16789 74.3579 5.28864 61.3579 10.7748 52.8579C14.5937 46.941 24.7909 39.1948 32.5894 33.2708C35.9939 30.6846 38.9412 28.4457 40.7011 26.8579C42.7485 25.0107 45.8606 21.9276 49.3472 18.4736C54.3542 13.5134 60.1336 7.78791 64.6419 3.85792C68.632 -0.808745 83.8943 -1.74208 87.0864 3.85792C88.7797 6.82858 92.8872 5.66262 99.0513 3.91283C104.507 2.36408 111.574 0.357946 120.005 0.357946C130.396 0.357946 135.649 2.03791 139.494 3.2674C143.031 4.39855 145.376 5.14841 149.432 3.85792C160.171 0.441495 170.041 1.25356 174.869 6.85791C179.666 12.4258 189.447 20.8121 199.489 29.4229C209.287 37.8237 219.333 46.4382 225.245 52.8579C230.623 58.6989 232.599 64.3848 234.079 68.6427C235.06 71.4662 235.823 73.6617 237.215 74.8579C242.49 79.3898 250.212 76.294 256.9 73.6129C259.144 72.7133 261.272 71.8604 263.151 71.3579C270.633 69.3579 273.127 77.3579 273.127 77.3579C273.127 77.3579 270.134 97.8579 273.127 110.358C274.422 115.769 276.345 118.844 278.219 121.838C280.485 125.462 282.679 128.969 283.601 136.358C284.527 143.791 282.461 149.441 280.522 154.741C278.288 160.849 276.224 166.49 279.112 173.858C284.598 187.858 287.591 206.858 287.591 206.858L289.586 222.358H29.7282C29.7282 222.358 32.0127 197.167 36.711 181.358C38.7614 174.458 41.5098 169.335 44.1922 164.334C47.3664 158.416 50.4483 152.671 52.1727 144.358C54.399 133.625 54.1677 116.358 54.1677 116.358Z" fill="#220C04"/>
</g>
<path d="M105.975 119.358C105.975 119.358 115.419 120.945 127.271 119.358C128.039 123.906 132.251 133.876 129.191 140.119C125.843 146.949 104.708 147.7 102.668 138.781C100.892 134.603 105.975 119.358 105.975 119.358Z" fill="#FC5454"/>
<path d="M116.792 129.858C116.792 129.858 121.201 123.358 120.792 118.858C120.382 114.358 113.291 114.358 113.292 118.858C113.292 123.358 116.792 129.858 116.792 129.858Z" fill="black" stroke="black"/>
<path d="M489.454 100.343C489.72 124.947 469.229 144.919 443.352 145.29C418.353 145.644 397.174 125.486 396.864 101.044C396.555 76.6658 417.098 56.9508 443.017 56.7656C468.446 56.5804 489.196 76.0537 489.462 100.343H489.454ZM463.809 117.787C463.259 116.909 462.399 114.904 460.945 113.39C458.373 110.7 455.465 108.284 452.652 105.803C447.456 101.221 441.684 100.577 435.928 104.499C432.255 107.003 429.055 110.144 425.76 113.108C422.164 116.337 421.622 119.994 424.091 123.07C426.655 126.259 431.533 127.532 435.223 125.188C441.021 121.5 446.191 121.975 451.964 125.301C456.979 128.192 463.895 124.27 463.809 117.795V117.787ZM450.92 87.1115C451.181 84.1006 450.92 81.8225 450.166 78.8003C449.412 75.778 446.389 74.2498 442.699 74.4269C439.086 74.6041 436.539 76.9719 436.169 79.9355C435.696 83.6241 435.877 87.6669 437.038 91.1863C438.587 95.8735 445.03 96.8399 448.462 93.0306C450.372 90.9125 450.684 89.8253 450.92 87.1115ZM470.614 94.1903C470.726 88.8105 467.99 85.2025 463.775 85.1864C458.897 85.1623 454.579 90.091 454.381 95.9137C454.235 100.102 457.865 104.128 461.9 104.257C466.657 104.41 470.494 99.9727 470.614 94.1903ZM415.618 93.2802C416.143 95.1969 416.418 97.2184 417.244 99.0063C419.11 103.033 423.18 104.958 426.879 103.854C430.449 102.791 432.522 99.3284 431.773 95.06C431.455 93.2561 430.681 91.4521 429.76 89.8253C427.98 86.6602 425.399 84.2603 421.201 85.3556C417.132 86.4186 415.945 89.5273 415.609 93.2722L415.618 93.2802Z" fill="#220C04"/>
<path d="M336.363 62.3457V84.2191C338.161 84.3157 339.821 84.4768 341.49 84.4768C349.516 84.4848 357.542 84.3802 365.56 84.4607C372.743 84.5332 377.363 88.5438 377.457 94.5356C377.552 100.439 373.388 104.24 365.973 104.45C357.955 104.675 349.929 104.53 341.903 104.546C340.199 104.546 338.496 104.546 336.285 104.546C336.191 106.253 336.053 107.663 336.053 109.08C336.01 117.665 336.087 126.25 335.95 134.835C335.881 139.257 334.195 142.986 329.55 144.943C325.343 146.714 321.059 146.32 317.971 143.348C315.871 141.335 313.901 138.145 313.884 135.464C313.643 107.566 313.755 79.6688 313.919 51.7634C313.953 45.4575 317.695 42.1234 324.448 42.0912C344.225 41.9945 364.003 41.922 383.771 42.1153C386.731 42.1475 390.051 43.1301 392.546 44.628C396.271 46.8588 397.57 52.1178 396.202 55.8143C394.774 59.6639 390.808 62.2652 385.819 62.2894C371.057 62.3618 356.303 62.3377 341.541 62.3457C339.984 62.3457 338.436 62.3457 336.354 62.3457H336.363Z" fill="#220C04"/>
<path d="M641.091 111.884C643.749 121.371 654.305 127.202 663.879 124.866C665.815 124.391 667.699 123.722 669.626 123.207C675.2 121.709 679.493 123.328 681.919 127.806C684.396 132.38 683.347 137.14 678.607 140.24C668.103 147.11 656.567 147.537 644.954 143.55C624.342 136.479 613.529 117.094 617.038 94.9392C618.595 85.1139 622.854 76.7463 630.811 70.1666C648.472 55.5736 675.106 61.7184 682.676 82.5368C684.87 88.5689 685.36 95.3982 685.265 101.841C685.171 108.389 680.284 111.876 673.29 111.908C663.974 111.956 654.657 111.892 645.332 111.884C643.964 111.884 642.588 111.884 641.091 111.884ZM640.231 95.5432H663.337C663.423 88.1179 658.589 82.7542 651.982 82.577C645.659 82.3999 640.489 88.0132 640.231 95.5432Z" fill="#220C04"/>
<path d="M531.812 146.336C520.578 145.917 510.323 142.599 500.422 138.226C496.258 136.382 494.71 132.733 495.69 128.836C496.912 123.979 501.342 120.106 506.323 120.476C509.945 120.742 513.437 122.28 517.033 123.053C522.418 124.213 527.812 125.55 533.283 126.089C535.563 126.315 538.393 125.139 540.363 123.802C544.312 121.12 543.908 116.006 539.632 113.84C536.647 112.334 533.292 111.44 530.049 110.401C525.042 108.798 519.846 107.631 514.986 105.698C494.951 97.757 491.63 77.8809 507.94 64.3108C519.261 54.8962 540.338 53.358 553.078 61.0169C557.422 63.6262 558.532 67.5805 556.106 71.7764C552.028 78.8152 549.551 79.5078 541.301 77.1883C537.129 76.0206 532.638 75.4085 528.285 75.3521C524.483 75.3038 521.378 77.285 520.681 81.2151C519.984 85.0969 522.892 86.8687 526.066 87.98C532.088 90.0981 538.264 91.8377 544.321 93.8833C554.523 97.3382 562.721 102.807 564.95 113.526C567.866 127.523 559.315 140.07 544.002 144.218C540.054 145.289 535.881 145.643 531.821 146.328L531.812 146.336Z" fill="#220C04"/>
<path d="M784.284 146.336C773.049 145.917 762.795 142.599 752.893 138.226C748.73 136.382 747.181 132.733 748.162 128.836C749.384 123.979 753.814 120.106 758.795 120.476C762.416 120.742 765.909 122.28 769.505 123.053C774.89 124.213 780.284 125.55 785.755 126.089C788.035 126.315 790.865 125.139 792.835 123.802C796.784 121.12 796.379 116.006 792.104 113.84C789.119 112.334 785.764 111.44 782.521 110.401C777.514 108.798 772.318 107.631 767.458 105.698C747.422 97.757 744.102 77.8809 760.412 64.3108C771.733 54.8962 792.809 53.358 805.55 61.0169C809.894 63.6262 811.004 67.5805 808.578 71.7764C804.5 78.8152 802.023 79.5078 793.773 77.1883C789.601 76.0206 785.11 75.4085 780.757 75.3521C776.955 75.3038 773.849 77.285 773.152 81.2151C772.456 85.0969 775.363 86.8687 778.538 87.98C784.559 90.0981 790.736 91.8377 796.792 93.8833C806.995 97.3382 815.193 102.807 817.421 113.526C820.337 127.523 811.787 140.07 796.474 144.218C792.525 145.289 788.353 145.643 784.293 146.328L784.284 146.336Z" fill="#220C04"/>
<path d="M579.024 60.3357C579.024 56.3089 578.964 52.1694 579.041 48.0299C579.145 42.1267 583.343 38.1321 589.476 38.0033C595.954 37.8664 600.849 42.0139 601.107 47.9735C601.245 51.058 601.331 54.1586 601.141 57.227C600.961 60.1021 602.208 61.1008 605.15 60.8189C606.561 60.69 608.041 60.7545 609.434 60.9961C614.768 61.8981 618.587 66.3597 618.08 70.9663C617.503 76.2575 613.452 79.793 607.8 79.8896C605.821 79.9218 603.843 79.8896 601.589 79.8896C601.442 81.154 601.21 82.1768 601.21 83.2077C601.184 93.8061 601.159 104.413 601.21 115.011C601.245 121.599 603.103 123.878 609.761 125.835C610.716 126.117 611.688 126.35 612.617 126.689C617.822 128.613 620.506 132.399 620.127 137.239C619.835 141.008 616.333 144.479 611.533 145.767C600.599 148.699 587.833 143.23 582.732 132.576C580.573 128.066 579.437 122.815 579.239 117.854C578.758 105.403 579.076 92.9282 579.076 79.9379C571.815 80.2601 565.243 79.5272 565.079 70.8938C564.959 64.3705 566.482 63.243 579.007 60.3115L579.024 60.3357Z" fill="#220C04"/>
<path d="M714.427 68.3997C720.398 64.4213 727.004 62.0616 734.42 62.1824C742.747 62.3193 747.384 67.6185 745.629 74.8345C744.519 79.3928 742.067 81.4061 737.061 81.8652C722.041 83.2423 714.78 90.6516 714.729 104.761C714.686 115.36 714.763 125.958 714.729 136.557C714.711 143.338 710.393 147.429 703.356 147.461C696.526 147.493 692.491 143.523 692.5 136.702C692.534 116.173 692.62 95.6528 692.629 75.1244C692.629 70.0748 693.119 65.2266 698.96 63.0683C704.913 60.8777 709.515 63.2535 713.318 67.538C713.584 67.836 713.963 68.0454 714.427 68.3917V68.3997Z" fill="#220C04"/>
<path d="M333.989 183.138C334.593 182.532 335.272 182.192 336.027 182.116C336.82 182.002 337.538 182.097 338.179 182.4C338.821 182.703 339.312 183.195 339.652 183.876C340.029 184.519 340.124 185.295 339.935 186.203C339.708 187.112 339.274 187.963 338.632 188.758C337.991 189.515 337.349 190.215 336.707 190.859C335.235 192.411 333.592 193.546 331.78 194.265C330.006 195.022 328.193 195.382 326.343 195.344C324.531 195.306 322.738 194.871 320.963 194.038C319.227 193.205 317.66 191.956 316.263 190.291C315.432 189.307 314.734 188.266 314.168 187.169C313.601 186.071 313.167 184.917 312.865 183.706C312.412 181.927 312.204 180.072 312.242 178.142C312.28 176.212 312.582 174.338 313.148 172.522C313.715 170.705 314.507 169.002 315.527 167.412C316.584 165.785 317.868 164.403 319.378 163.268C320.473 162.435 321.567 161.716 322.662 161.11C323.795 160.505 324.984 159.937 326.23 159.407C326.947 159.105 327.684 158.821 328.439 158.556C329.194 158.253 329.968 158.026 330.761 157.874C331.554 157.723 332.346 157.666 333.139 157.704C333.932 157.742 334.706 157.912 335.461 158.215C335.99 158.442 336.518 158.764 337.047 159.18C337.575 159.559 338.066 160.013 338.519 160.543C338.972 161.035 339.369 161.565 339.708 162.132C340.048 162.7 340.294 163.249 340.445 163.779C340.558 164.271 340.577 164.782 340.501 165.312C340.464 165.804 340.313 166.258 340.048 166.674C339.822 167.09 339.501 167.45 339.085 167.753C338.67 168.018 338.198 168.188 337.67 168.264C336.801 168.377 336.122 168.283 335.631 167.98C335.178 167.677 334.8 167.299 334.498 166.844C334.234 166.39 333.97 165.955 333.706 165.539C333.441 165.084 333.064 164.763 332.573 164.574C332.271 164.574 332.044 164.592 331.893 164.63C330.61 164.971 329.307 165.444 327.986 166.05C326.702 166.617 325.494 167.317 324.361 168.15C323.266 168.983 322.304 169.948 321.473 171.045C320.642 172.143 320.038 173.373 319.661 174.736C319.208 176.363 319.038 178.009 319.151 179.675C319.264 181.34 319.718 182.911 320.51 184.387C320.963 185.257 321.567 186.014 322.323 186.658C323.078 187.301 323.908 187.793 324.814 188.134C325.72 188.436 326.645 188.55 327.589 188.474C328.533 188.361 329.439 188.02 330.308 187.452C331.063 186.923 331.742 186.279 332.346 185.522C332.95 184.727 333.498 183.933 333.989 183.138Z" fill="#220C04"/>
<path d="M383.036 178.653C382.394 180.772 381.563 182.854 380.544 184.898C379.562 186.904 378.354 188.701 376.919 190.291C375.485 191.881 373.805 193.167 371.879 194.151C369.991 195.136 367.821 195.628 365.367 195.628C363.781 195.552 362.516 195.4 361.572 195.173C360.666 194.984 359.779 194.681 358.911 194.265C357.363 193.811 356.022 193.092 354.89 192.108C353.795 191.086 352.87 189.913 352.115 188.588C351.36 187.263 350.775 185.863 350.359 184.387C349.982 182.873 349.736 181.416 349.623 180.015C349.434 177.555 349.642 175.057 350.246 172.522C350.85 169.986 351.813 167.658 353.134 165.539C354.456 163.381 356.117 161.546 358.118 160.032C360.119 158.48 362.403 157.458 364.97 156.966C366.292 156.739 367.632 156.663 368.991 156.739C370.35 156.815 371.672 157.08 372.955 157.534C374.012 157.912 374.994 158.348 375.9 158.84C376.806 159.332 377.674 159.956 378.505 160.713C379.6 161.697 380.525 162.833 381.28 164.119C382.035 165.406 382.583 166.75 382.922 168.15C383.338 169.929 383.526 171.689 383.489 173.43C383.451 175.171 383.3 176.912 383.036 178.653ZM368.368 188.247C369.501 187.755 370.482 187.112 371.313 186.317C372.181 185.484 372.936 184.576 373.578 183.592C374.22 182.608 374.749 181.567 375.164 180.47C375.617 179.334 376.013 178.199 376.353 177.063C376.58 175.625 376.693 174.149 376.693 172.635C376.731 171.121 376.429 169.683 375.787 168.32C375.258 167.185 374.446 166.22 373.352 165.425C372.294 164.592 371.124 164.025 369.84 163.722C368.557 163.381 367.254 163.306 365.933 163.495C364.649 163.684 363.498 164.195 362.478 165.028C361.044 166.239 359.873 167.601 358.967 169.115C358.099 170.591 357.438 172.238 356.985 174.054C356.608 175.493 356.4 177.006 356.362 178.596C356.324 180.186 356.57 181.7 357.098 183.138C357.514 184.198 358.118 185.163 358.911 186.033C359.741 186.904 360.666 187.585 361.686 188.077C362.705 188.569 363.781 188.853 364.914 188.929C366.084 188.966 367.235 188.739 368.368 188.247Z" fill="#220C04"/>
<path d="M417.437 159.464C417.663 158.707 418.022 158.083 418.513 157.591C419.041 157.099 419.607 156.777 420.212 156.626C420.816 156.474 421.42 156.512 422.024 156.739C422.666 156.966 423.213 157.42 423.666 158.102C423.817 158.291 423.949 158.518 424.063 158.783C424.214 159.048 424.289 159.294 424.289 159.521C424.365 164.933 424.327 170.345 424.176 175.758C424.063 181.132 423.855 186.525 423.553 191.937C423.553 192.808 423.27 193.489 422.703 193.981C422.175 194.473 421.552 194.776 420.835 194.89C420.155 195.041 419.456 194.965 418.739 194.662C418.022 194.398 417.493 193.924 417.153 193.243C417.116 193.205 417.097 193.167 417.097 193.13V193.243C414.643 189.193 412.057 185.314 409.338 181.605C406.62 177.858 403.788 174.149 400.844 170.478V183.308C400.844 185.049 400.844 186.506 400.844 187.68C400.844 188.853 400.825 189.818 400.787 190.575C400.749 191.294 400.693 191.862 400.617 192.278C400.579 192.694 400.504 193.054 400.391 193.357C400.051 194.265 399.522 194.871 398.805 195.173C398.125 195.476 397.427 195.552 396.709 195.4C395.992 195.249 395.369 194.871 394.841 194.265C394.312 193.659 394.048 192.903 394.048 191.994C394.048 191.464 394.048 190.632 394.048 189.496C394.048 188.361 394.048 187.074 394.048 185.636C394.048 184.198 394.048 182.665 394.048 181.037C394.048 179.372 394.048 177.745 394.048 176.155C394.048 174.565 394.029 173.089 393.991 171.727C393.991 170.326 393.991 169.153 393.991 168.207C393.991 166.92 393.972 165.652 393.935 164.403C393.897 163.116 393.897 161.83 393.935 160.543C393.935 159.899 394.086 159.351 394.388 158.896C394.727 158.442 395.143 158.102 395.633 157.874C396.124 157.61 396.653 157.458 397.219 157.42C397.785 157.382 398.333 157.458 398.861 157.647C399.315 157.799 399.768 158.12 400.221 158.613C400.711 159.067 401.183 159.578 401.636 160.145C402.089 160.675 402.505 161.224 402.882 161.792C403.298 162.322 403.637 162.757 403.902 163.097C404.883 164.309 406.016 165.709 407.3 167.299C408.583 168.85 409.772 170.326 410.867 171.727C411.962 173.165 413.019 174.603 414.039 176.041C415.096 177.48 416.115 178.918 417.097 180.356C417.21 176.912 417.286 173.487 417.323 170.08C417.361 166.674 417.38 163.249 417.38 159.805L417.437 159.464Z" fill="#220C04"/>
<path d="M458.251 159.464C458.478 158.707 458.836 158.083 459.327 157.591C459.856 157.099 460.422 156.777 461.026 156.626C461.63 156.474 462.234 156.512 462.838 156.739C463.48 156.966 464.028 157.42 464.481 158.102C464.632 158.291 464.764 158.518 464.877 158.783C465.028 159.048 465.104 159.294 465.104 159.521C465.179 164.933 465.141 170.345 464.99 175.758C464.877 181.132 464.669 186.525 464.367 191.937C464.367 192.808 464.084 193.489 463.518 193.981C462.989 194.473 462.366 194.776 461.649 194.89C460.97 195.041 460.271 194.965 459.554 194.662C458.836 194.398 458.308 193.924 457.968 193.243C457.93 193.205 457.911 193.167 457.911 193.13V193.243C455.457 189.193 452.871 185.314 450.153 181.605C447.435 177.858 444.603 174.149 441.658 170.478V183.308C441.658 185.049 441.658 186.506 441.658 187.68C441.658 188.853 441.639 189.818 441.602 190.575C441.564 191.294 441.507 191.862 441.432 192.278C441.394 192.694 441.318 193.054 441.205 193.357C440.865 194.265 440.337 194.871 439.619 195.173C438.94 195.476 438.241 195.552 437.524 195.4C436.807 195.249 436.184 194.871 435.655 194.265C435.127 193.659 434.862 192.903 434.862 191.994C434.862 191.464 434.862 190.632 434.862 189.496C434.862 188.361 434.862 187.074 434.862 185.636C434.862 184.198 434.862 182.665 434.862 181.037C434.862 179.372 434.862 177.745 434.862 176.155C434.862 174.565 434.843 173.089 434.806 171.727C434.806 170.326 434.806 169.153 434.806 168.207C434.806 166.92 434.787 165.652 434.749 164.403C434.711 163.116 434.711 161.83 434.749 160.543C434.749 159.899 434.9 159.351 435.202 158.896C435.542 158.442 435.957 158.102 436.448 157.874C436.939 157.61 437.467 157.458 438.034 157.42C438.6 157.382 439.147 157.458 439.676 157.647C440.129 157.799 440.582 158.12 441.035 158.613C441.526 159.067 441.998 159.578 442.451 160.145C442.904 160.675 443.319 161.224 443.697 161.792C444.112 162.322 444.452 162.757 444.716 163.097C445.698 164.309 446.831 165.709 448.114 167.299C449.398 168.85 450.587 170.326 451.682 171.727C452.777 173.165 453.834 174.603 454.853 176.041C455.91 177.48 456.93 178.918 457.911 180.356C458.025 176.912 458.1 173.487 458.138 170.08C458.176 166.674 458.195 163.249 458.195 159.805L458.251 159.464Z" fill="#220C04"/>
<path d="M496.857 186.09C497.537 186.128 498.122 186.317 498.613 186.658C499.141 186.96 499.557 187.339 499.859 187.793C500.198 188.247 500.387 188.777 500.425 189.383C500.5 189.95 500.387 190.537 500.085 191.143C499.972 191.408 499.726 191.729 499.349 192.108C499.009 192.448 498.688 192.657 498.386 192.732C495.97 193.451 493.478 193.887 490.911 194.038C488.381 194.227 485.871 194.189 483.379 193.924C482.662 193.849 481.869 193.773 481 193.697C480.17 193.622 479.434 193.376 478.792 192.959C477.621 192.202 477.036 191.124 477.036 189.723V165.539C476.621 165.236 476.281 164.857 476.017 164.403C475.752 163.949 475.583 163.476 475.507 162.984C475.469 162.454 475.545 161.962 475.734 161.508C475.922 161.016 476.243 160.6 476.696 160.259C477.451 159.653 478.32 159.256 479.301 159.067C480.283 158.84 481.246 158.65 482.19 158.499C484.153 158.196 486.116 158.045 488.079 158.045C490.042 158.045 492.043 158.026 494.082 157.988C494.686 157.988 495.385 157.95 496.178 157.874C496.97 157.761 497.669 157.818 498.273 158.045C498.99 158.31 499.557 158.726 499.972 159.294C500.387 159.861 500.633 160.467 500.708 161.11C500.784 161.754 500.651 162.378 500.312 162.984C500.01 163.589 499.462 164.063 498.669 164.403C497.725 164.782 496.706 164.952 495.611 164.914C494.554 164.876 493.535 164.857 492.553 164.857C491.118 164.857 489.684 164.876 488.249 164.914C486.814 164.952 485.38 165.066 483.945 165.255V173.146C485.304 173.222 486.663 173.222 488.023 173.146C489.382 173.07 490.741 172.976 492.1 172.862C492.704 172.824 493.308 172.768 493.912 172.692C494.516 172.616 495.139 172.616 495.781 172.692C496.612 172.805 497.254 173.146 497.707 173.714C498.16 174.281 498.424 174.925 498.499 175.644C498.613 176.325 498.499 177.006 498.16 177.688C497.82 178.369 497.272 178.861 496.517 179.164C495.876 179.429 495.007 179.637 493.912 179.788C492.817 179.902 491.666 179.996 490.458 180.072C489.25 180.11 488.06 180.129 486.89 180.129C485.72 180.129 484.738 180.11 483.945 180.072V187.055C486.022 187.32 488.117 187.358 490.231 187.169C492.345 186.979 494.422 186.62 496.461 186.09H496.857Z" fill="#220C04"/>
<path d="M531.105 183.138C531.709 182.532 532.388 182.192 533.143 182.116C533.936 182.002 534.653 182.097 535.295 182.4C535.937 182.703 536.428 183.195 536.768 183.876C537.145 184.519 537.24 185.295 537.051 186.203C536.824 187.112 536.39 187.963 535.748 188.758C535.107 189.515 534.465 190.215 533.823 190.859C532.35 192.411 530.708 193.546 528.896 194.265C527.121 195.022 525.309 195.382 523.459 195.344C521.647 195.306 519.854 194.871 518.079 194.038C516.343 193.205 514.776 191.956 513.379 190.291C512.548 189.307 511.85 188.266 511.284 187.169C510.717 186.071 510.283 184.917 509.981 183.706C509.528 181.927 509.32 180.072 509.358 178.142C509.396 176.212 509.698 174.338 510.264 172.522C510.83 170.705 511.623 169.002 512.643 167.412C513.7 165.785 514.983 164.403 516.494 163.268C517.588 162.435 518.683 161.716 519.778 161.11C520.911 160.505 522.1 159.937 523.346 159.407C524.063 159.105 524.8 158.821 525.555 158.556C526.31 158.253 527.084 158.026 527.877 157.874C528.669 157.723 529.462 157.666 530.255 157.704C531.048 157.742 531.822 157.912 532.577 158.215C533.106 158.442 533.634 158.764 534.163 159.18C534.691 159.559 535.182 160.013 535.635 160.543C536.088 161.035 536.485 161.565 536.824 162.132C537.164 162.7 537.41 163.249 537.561 163.779C537.674 164.271 537.693 164.782 537.617 165.312C537.579 165.804 537.428 166.258 537.164 166.674C536.938 167.09 536.617 167.45 536.201 167.753C535.786 168.018 535.314 168.188 534.786 168.264C533.917 168.377 533.238 168.283 532.747 167.98C532.294 167.677 531.916 167.299 531.614 166.844C531.35 166.39 531.086 165.955 530.821 165.539C530.557 165.084 530.18 164.763 529.689 164.574C529.387 164.574 529.16 164.592 529.009 164.63C527.726 164.971 526.423 165.444 525.102 166.05C523.818 166.617 522.61 167.317 521.477 168.15C520.382 168.983 519.42 169.948 518.589 171.045C517.758 172.143 517.154 173.373 516.777 174.736C516.324 176.363 516.154 178.009 516.267 179.675C516.38 181.34 516.833 182.911 517.626 184.387C518.079 185.257 518.683 186.014 519.438 186.658C520.194 187.301 521.024 187.793 521.93 188.134C522.836 188.436 523.761 188.55 524.705 188.474C525.649 188.361 526.555 188.02 527.424 187.452C528.179 186.923 528.858 186.279 529.462 185.522C530.066 184.727 530.614 183.933 531.105 183.138Z" fill="#220C04"/>
<path d="M571.883 158.215C572.601 158.518 573.186 159.01 573.639 159.691C574.13 160.335 574.413 161.016 574.488 161.735C574.602 162.416 574.469 163.041 574.092 163.608C573.752 164.176 573.129 164.555 572.223 164.744C570.486 165.047 568.844 165.179 567.296 165.141C565.786 165.103 564.465 165.084 563.332 165.084C563.332 169.626 563.351 174.092 563.389 178.483C563.426 182.873 563.407 187.509 563.332 192.392C563.332 193.451 562.973 194.208 562.256 194.662C561.539 195.154 560.746 195.363 559.877 195.287C559.047 195.211 558.273 194.871 557.556 194.265C556.838 193.659 556.48 192.827 556.48 191.767C556.442 187.301 556.423 182.854 556.423 178.426C556.423 173.998 556.423 169.55 556.423 165.084C556.083 165.084 555.498 165.103 554.667 165.141C553.874 165.179 552.987 165.198 552.006 165.198C551.062 165.16 550.08 165.084 549.061 164.971C548.041 164.82 547.154 164.555 546.399 164.176C545.795 163.873 545.399 163.438 545.21 162.87C545.021 162.265 545.002 161.659 545.153 161.054C545.342 160.448 545.663 159.88 546.116 159.351C546.569 158.821 547.135 158.461 547.815 158.272C550.986 158.083 554.044 158.026 556.989 158.102C559.972 158.139 562.992 158.158 566.05 158.158C566.956 158.158 567.862 158.158 568.769 158.158C569.675 158.12 570.6 158.102 571.544 158.102L571.883 158.215Z" fill="#220C04"/>
<defs>
<filter id="filter0_d_9_101" x="0" y="0" width="293.585" height="230.358" filterUnits="userSpaceOnUse" color-interpolation-filters="sRGB">
<feFlood flood-opacity="0" result="BackgroundImageFix"/>
<feColorMatrix in="SourceAlpha" type="matrix" values="0 0 0 0 0 0 0 0 0 0 0 0 0 0 0 0 0 0 127 0" result="hardAlpha"/>
<feOffset dy="4"/>
<feGaussianBlur stdDeviation="2"/>
<feComposite in2="hardAlpha" operator="out"/>
<feColorMatrix type="matrix" values="0 0 0 0 0 0 0 0 0 0 0 0 0 0 0 0 0 0 0.25 0"/>
<feBlend mode="normal" in2="BackgroundImageFix" result="effect1_dropShadow_9_101"/>
<feBlend mode="normal" in="SourceGraphic" in2="effect1_dropShadow_9_101" result="shape"/>
</filter>
</defs>
</svg>
