<svg width="355" height="365" viewBox="0 0 355 365" fill="none" xmlns="http://www.w3.org/2000/svg">
<path d="M173.351 29.7479C175.561 28.5779 177.701 27.2979 179.971 26.2779C186.261 23.4379 190.261 24.1179 195.211 28.8779C199.241 32.7479 202.941 36.9779 207.181 40.5879C213.511 45.9679 220.041 51.1379 226.761 56.0279C233.721 61.1079 240.651 66.1579 245.591 73.3679C250.121 79.9779 251.971 87.0679 249.001 94.8879C248.191 97.0079 245.861 98.0479 243.811 97.0979C243.341 96.8779 243.021 96.1279 242.831 95.5479C242.341 94.0679 241.951 92.5579 240.941 91.0479C240.561 92.3679 240.091 93.6579 239.841 94.9979C239.461 97.0279 238.451 98.1879 236.311 98.5879C234.121 98.9979 232.001 99.7679 229.821 100.378C227.851 97.8679 225.981 95.2279 223.851 92.8279C218.621 86.9379 211.991 83.4879 204.231 82.2879C202.451 82.0179 202.091 81.0979 202.111 79.5779C202.161 74.0779 202.331 68.5679 202.131 63.0779C201.811 54.5179 197.081 48.1479 191.291 42.3979C191.211 42.3179 190.981 42.3879 190.571 42.3879C191.221 45.1379 192.021 47.8079 192.471 50.5379C194.181 60.8579 193.911 71.2479 193.681 81.6679C193.461 91.8479 193.861 102.068 194.401 112.248C194.581 115.658 195.831 119.078 196.981 122.368C198.381 126.358 198.321 129.748 195.481 133.268C190.311 139.688 186.661 146.908 187.021 155.428C187.151 158.518 188.251 161.578 188.991 164.628C189.141 165.248 189.671 165.778 190.211 166.638C188.101 171.118 186.111 176.498 183.151 181.278C180.221 186.008 176.321 190.128 172.961 194.678C182.461 189.588 191.691 184.128 198.741 175.348C199.981 177.158 201.141 178.838 202.361 180.618C201.191 181.938 199.871 183.178 198.831 184.618C190.541 196.118 186.211 209.098 184.521 223.058C184.491 223.308 184.501 223.558 184.501 223.808C184.471 228.588 184.471 228.528 179.861 229.228C175.171 229.938 170.461 230.618 165.821 231.608C160.741 232.678 155.671 232.818 150.531 232.588C152.591 230.438 154.501 228.418 156.441 226.438C161.331 221.448 160.701 210.388 154.271 204.448C153.151 203.418 152.491 201.888 151.611 200.588C153.041 199.898 154.411 198.978 155.911 198.548C164.601 196.068 171.361 191.168 175.531 183.038C176.341 181.458 176.761 179.668 177.171 177.878C167.641 185.938 156.291 186.818 144.671 186.928C136.391 187.008 128.121 186.898 120.291 183.868C116.561 182.428 113.131 180.218 109.591 178.358C111.191 185.838 115.941 191.258 122.881 195.058C120.571 196.418 115.681 195.908 113.991 194.128C108.111 187.948 102.721 181.498 99.5711 173.328C97.6011 168.218 94.6811 163.488 92.4011 158.488C91.4911 156.488 90.8111 154.258 90.6311 152.078C89.8611 142.958 88.8111 133.818 88.8511 124.688C88.8811 117.838 90.3311 110.988 91.3411 104.168C92.7511 94.5879 93.2511 85.0279 92.8611 75.3079C92.4211 64.5179 92.5611 53.6379 96.2311 43.1979C96.3111 42.9879 96.2311 42.7179 96.2311 41.9379C95.4211 42.4579 94.7811 42.7079 94.3611 43.1679C88.2811 49.7579 83.6211 56.8279 84.3711 66.4879C85.7111 83.9679 82.3411 100.838 76.8211 117.308C75.6711 120.728 73.6811 123.898 71.7811 127.008C70.9311 128.408 69.3511 129.358 67.8611 130.748C67.1711 129.628 66.7511 128.938 66.3211 128.258C61.7211 121.138 56.9211 114.128 52.5811 106.848C50.2211 102.888 48.6311 98.4679 46.7611 94.2279C46.3311 93.2579 46.2011 92.1679 45.7811 90.4979C43.5311 94.8279 43.2711 98.8679 43.6611 103.488C42.8711 102.788 42.3611 102.438 41.9811 101.978C35.2911 93.9679 34.5211 84.2579 39.8911 75.2779C43.9111 68.5579 49.4611 63.1579 55.9411 59.0479C68.7211 50.9379 79.6411 40.7679 90.2711 30.1479C97.1411 23.2879 101.651 22.9879 110.101 27.9079C111.171 28.5279 112.201 29.2079 113.221 29.8379C123.931 19.0379 162.831 19.0079 173.331 29.7479H173.351ZM108.841 112.328C108.651 112.218 108.461 112.108 108.281 111.998C107.471 112.898 106.531 113.708 105.871 114.708C100.371 123.008 104.531 136.498 113.751 140.098C115.271 140.688 115.811 141.488 116.221 143.048C117.301 147.218 118.281 151.518 120.111 155.378C128.771 173.608 153.081 172.068 162.081 161.708C166.791 156.288 169.241 149.988 170.511 143.058C170.691 142.098 171.431 140.748 172.221 140.458C183.241 136.428 184.741 123.548 181.211 115.948C180.511 114.448 179.181 113.238 178.131 111.888C177.611 113.228 177.721 114.148 177.601 115.048C177.111 118.738 177.161 122.648 175.891 126.048C172.531 135.028 158.291 137.048 152.841 129.188C148.421 122.798 147.161 112.218 157.011 107.308C162.441 104.598 165.451 100.038 164.821 93.7079C164.191 87.3979 160.151 83.9279 154.411 82.3279C146.871 80.2279 139.231 80.2579 131.711 82.4279C126.991 83.7879 123.341 86.5479 121.981 91.5779C120.271 97.8779 123.231 103.928 129.731 107.528C134.991 110.438 137.391 114.598 136.761 119.898C136.011 126.098 134.071 131.308 127.101 133.208C118.361 135.588 111.261 131.578 109.471 122.708C109.001 120.358 109.031 117.908 108.881 115.508C108.811 114.448 108.871 113.388 108.871 112.328H108.841ZM102.871 73.0579C103.591 74.9579 104.441 78.3979 106.141 81.3379C108.661 85.7079 114.531 86.4779 118.301 83.3879C125.011 77.8979 125.011 65.2879 118.301 59.8479C115.061 57.2179 111.231 57.2479 108.041 59.9379C104.461 62.9579 103.321 67.0379 102.861 73.0579H102.871ZM163.281 73.1079C163.851 74.7079 164.551 78.1079 166.211 80.9579C169.361 86.3979 176.151 86.6779 180.011 81.8879C184.501 76.3279 184.451 66.7779 179.921 61.2179C176.781 57.3679 172.071 56.8079 168.251 59.9979C164.761 62.9079 163.541 66.9079 163.281 73.1079ZM126.701 57.1579C125.551 50.5979 117.931 44.9279 111.781 45.4079C106.051 45.8579 99.9411 51.0779 99.8911 55.9179C108.921 50.7679 117.791 50.1079 126.701 57.1479V57.1579ZM186.771 56.0379C185.811 50.0879 179.081 45.1079 173.011 45.3979C167.631 45.6579 160.301 52.0179 160.011 56.9779C168.641 50.4079 177.481 50.5279 186.771 56.0379Z" fill="#E5844E"/>
<path d="M232.391 109.608C240.291 103.338 251.411 102.998 260.551 109.718C259.681 110.208 258.931 110.618 258.201 111.028C254.641 113.048 251.961 115.848 251.221 119.978C250.941 121.528 251.341 123.228 251.551 124.838C251.881 127.268 252.511 129.678 252.661 132.118C252.841 135.098 252.401 138.118 252.661 141.088C253.081 145.748 255.751 148.778 260.371 149.738C263.791 150.448 267.291 150.728 270.721 151.408C276.461 152.558 281.431 154.888 284.461 160.348C286.971 164.868 286.791 169.298 284.491 173.708C280.521 181.338 274.011 186.288 266.611 190.228C244.551 201.988 221.641 192.048 210.551 177.668C206.201 172.028 204.731 165.958 208.781 159.368C210.951 155.838 214.001 153.478 217.901 152.448C221.341 151.528 224.901 150.968 228.441 150.518C237.261 149.408 240.571 145.668 240.271 136.768C240.201 134.608 239.861 132.448 239.881 130.288C239.891 128.828 239.991 127.188 240.631 125.938C243.031 121.268 241.321 117.468 238.221 114.118C236.571 112.338 234.341 111.078 232.391 109.598V109.608ZM264.801 162.388C262.591 163.748 260.631 165.368 258.371 166.258C255.151 167.528 250.901 165.268 249.511 162.008C248.151 158.798 248.801 157.528 253.011 155.198C253.161 155.118 253.331 155.068 253.441 154.948C253.971 154.358 255.001 153.628 254.891 153.188C254.701 152.448 253.901 151.558 253.161 151.318C248.531 149.788 243.841 149.768 239.231 151.358C238.521 151.598 237.741 152.558 237.631 153.288C237.551 153.778 238.521 154.528 239.151 154.998C239.801 155.498 240.621 155.778 241.331 156.198C243.581 157.538 244.071 158.928 243.201 161.438C241.431 166.518 235.131 168.088 230.691 164.528C229.781 163.798 228.951 162.978 227.811 161.958C229.191 170.698 237.661 172.468 246.301 166.288C255.291 172.388 263.211 170.738 264.801 162.388Z" fill="white"/>
<path d="M85.4909 170.948C91.6509 182.538 102.211 188.478 112.701 194.438C114.581 195.508 116.981 196.398 119.061 196.258C124.101 195.908 128.421 198.408 133.131 199.208C133.931 199.348 135.151 200.378 135.151 201.008C135.151 201.888 134.381 202.978 133.621 203.618C128.061 208.288 125.841 214.148 127.511 221.218C128.481 225.338 131.341 228.318 134.571 230.898C135.191 231.398 135.871 231.828 136.961 232.608C131.271 233.068 126.241 232.658 121.171 231.658C114.241 230.298 107.271 229.098 100.271 228.148C97.4209 227.758 94.4609 228.168 91.5509 228.278C87.6009 228.428 84.1809 227.248 81.3509 224.438C78.9909 222.088 76.3409 220.438 72.8709 220.118C70.5909 219.908 69.4109 218.448 69.6009 215.958C70.7809 200.198 75.9009 185.778 84.2109 172.418C84.4609 172.008 84.8409 171.678 85.4709 170.948H85.4909Z" fill="#E5844E"/>
<path d="M278.911 193.608C279.291 202.528 278.491 211.058 270.681 217.228C269.251 218.358 267.781 219.608 266.821 221.118C262.711 227.548 256.251 229.298 249.381 229.648C245.121 229.868 240.761 229.238 236.521 228.518C232.671 227.868 229.441 225.878 227.011 222.588C225.441 220.468 223.531 218.538 221.521 216.808C216.471 212.468 213.881 207.038 213.761 200.418C213.721 198.008 213.761 195.608 213.761 193.178C213.841 193.168 214.081 193.078 214.131 193.138C220.181 201.288 229.111 203.858 238.441 205.288C249.771 207.028 260.731 205.438 270.851 199.888C273.761 198.298 276.171 195.788 278.931 193.598L278.911 193.608Z" fill="white"/>
<path d="M207.846 122.092C204.446 112.952 202.276 103.892 205.806 94.3424C206.506 92.4424 207.316 91.9324 209.266 92.7024C215.566 95.2024 220.056 99.7224 223.616 105.272C223.966 105.822 223.776 107.272 223.296 107.702C220.706 110.012 217.826 112.002 215.286 114.352C212.746 116.702 210.466 119.342 207.846 122.092Z" fill="#FC5454"/>
<path d="M290.641 122.498C286.281 116.168 280.861 111.928 275.391 107.718C274.921 107.358 274.621 105.998 274.921 105.548C278.511 100.028 282.921 95.3879 289.171 92.7879C291.181 91.9479 292.161 92.4479 292.871 94.5079C295.331 101.648 295.071 108.738 292.841 115.848C292.201 117.888 291.501 119.908 290.651 122.508L290.641 122.498Z" fill="#FC5454"/>
<path d="M143.431 205.258C148.721 205.278 152.821 209.668 152.741 215.228C152.671 220.548 148.421 224.858 143.271 224.838C138.131 224.818 134.031 220.468 134.041 215.038C134.041 209.238 137.891 205.228 143.431 205.248V205.258Z" fill="#BEB0B0"/>
<path d="M192.741 223.888C191.691 218.058 198.041 197.008 202.811 190.878C202.691 191.698 202.561 192.528 202.441 193.348C201.811 198.048 201.181 202.748 200.551 207.448C200.491 207.858 200.511 208.318 200.331 208.668C197.891 213.608 195.411 218.528 192.731 223.888H192.741Z" fill="white"/>
<path d="M300.141 223.168C293.931 213.348 290.071 202.828 290.251 190.338C295.511 201.168 299.141 211.768 300.141 223.168Z" fill="white"/>
<path d="M263.001 138.618C270.871 144.038 275.191 142.308 276.651 133.358C278.421 135.008 278.741 138.278 277.421 141.038C275.951 144.098 272.561 146.008 269.481 145.498C265.921 144.908 263.531 142.478 263.001 138.628V138.618Z" fill="#BEF521"/>
<path d="M235.991 137.717C235.724 141.698 233.588 145.442 230.001 146.358C227.044 147.111 223.586 145.498 221.664 142.858C219.486 139.869 219.38 135.066 221.664 131.358C222.081 135.306 220.932 138.92 225.501 139.858C228.992 140.578 233.407 141.273 236.001 137.717H235.991Z" fill="#BEF521"/>
<path d="M192.531 155.278C192.721 146.478 196.281 139.288 202.421 133.338C202.691 133.468 202.961 133.608 203.241 133.738L192.531 155.278Z" fill="white"/>
<path d="M289.311 133.828C295.071 136.788 301.111 148.998 300.081 155.418C296.391 148.028 292.851 140.928 289.311 133.828Z" fill="white"/>
<path d="M269.531 134.678C268.501 135.368 267.511 136.538 266.421 136.638C264.841 136.778 263.721 135.378 264.131 133.858C264.401 132.868 265.731 131.508 266.591 131.508C267.581 131.508 268.571 132.818 269.561 133.568C269.551 133.938 269.541 134.308 269.531 134.678Z" fill="white"/>
<path d="M228.971 134.548C227.961 135.288 227.021 136.498 225.941 136.648C224.351 136.868 223.201 135.478 223.541 133.958C223.761 132.958 225.051 131.538 225.901 131.498C226.891 131.458 227.941 132.738 228.961 133.438C228.961 133.808 228.961 134.168 228.961 134.538L228.971 134.548Z" fill="white"/>
<path d="M108.841 112.328C108.841 113.388 108.791 114.448 108.851 115.508C109.001 117.908 108.971 120.368 109.441 122.708C111.231 131.588 118.331 135.588 127.071 133.208C134.051 131.308 135.991 126.108 136.731 119.898C137.371 114.598 134.961 110.438 129.701 107.528C123.191 103.928 120.241 97.8879 121.951 91.5779C123.311 86.5479 126.961 83.7879 131.681 82.4279C139.211 80.2579 146.841 80.2279 154.381 82.3279C160.121 83.9279 164.161 87.4079 164.791 93.7079C165.431 100.028 162.411 104.598 156.981 107.308C147.141 112.218 148.391 122.798 152.811 129.188C158.261 137.058 172.501 135.028 175.861 126.048C177.141 122.648 177.081 118.738 177.571 115.048C177.691 114.158 177.591 113.228 178.101 111.888C179.141 113.228 180.481 114.438 181.181 115.948C184.711 123.548 183.211 136.428 172.191 140.458C171.391 140.748 170.651 142.098 170.481 143.058C169.211 149.988 166.761 156.288 162.051 161.708C153.051 172.068 128.741 173.608 120.081 155.378C118.251 151.518 117.271 147.218 116.191 143.048C115.791 141.488 115.241 140.698 113.721 140.098C104.501 136.498 100.341 123.008 105.841 114.708C106.501 113.708 107.441 112.898 108.251 111.998C108.441 112.108 108.631 112.218 108.811 112.328H108.841ZM159.861 92.2579C159.041 89.8479 157.591 88.0079 155.171 87.3979C147.301 85.4079 139.371 85.3779 131.501 87.4279C129.011 88.0779 127.441 90.1879 127.281 92.0079C138.031 87.1079 148.811 87.0379 159.851 92.2579H159.861Z" fill="black"/>
<path d="M102.871 73.058C103.321 67.038 104.471 62.958 108.051 59.938C111.241 57.248 115.061 57.218 118.311 59.848C125.021 65.288 125.011 77.898 118.311 83.388C114.541 86.478 108.671 85.708 106.151 81.338C104.451 78.388 103.611 74.958 102.881 73.058H102.871ZM107.791 66.268C105.181 70.808 106.301 77.448 109.871 80.298C112.401 82.318 115.721 81.718 117.391 78.928C111.591 79.988 107.651 75.448 107.801 66.268H107.791ZM111.931 65.218C111.931 65.598 111.931 65.968 111.941 66.348C112.951 67.058 114.081 68.428 114.951 68.288C115.911 68.128 117.191 66.618 117.291 65.598C117.361 64.838 115.801 63.268 114.921 63.238C113.951 63.198 112.921 64.498 111.921 65.218H111.931Z" fill="black"/>
<path d="M163.281 73.1079C163.541 66.8979 164.751 62.9079 168.251 59.9979C172.071 56.8079 176.781 57.3779 179.921 61.2179C184.461 66.7679 184.501 76.3279 180.011 81.8879C176.151 86.6779 169.361 86.3879 166.211 80.9579C164.561 78.1079 163.861 74.7079 163.281 73.1079ZM178.731 65.7279C178.971 75.1679 176.561 78.5479 169.461 79.1579C171.421 81.9879 174.711 82.2879 177.271 79.8779C180.681 76.6679 181.441 70.3779 178.731 65.7279ZM168.831 65.1379C168.831 65.5079 168.831 65.8879 168.831 66.2579C169.831 66.9979 170.921 68.4279 171.801 68.2979C172.771 68.1579 174.101 66.6779 174.221 65.6479C174.311 64.8879 172.781 63.2779 171.891 63.2179C170.921 63.1579 169.861 64.4379 168.841 65.1379H168.831Z" fill="black"/>
<path d="M126.701 57.158C117.791 50.108 108.921 50.7679 99.8911 55.9279C99.9411 51.0879 106.051 45.8679 111.781 45.4179C117.931 44.9379 125.551 50.6079 126.701 57.1679V57.158Z" fill="black"/>
<path d="M186.771 56.0379C177.481 50.5279 168.631 50.4079 160.011 56.9779C160.311 52.0279 167.631 45.6579 173.011 45.3979C179.081 45.1079 185.811 50.0879 186.771 56.0379Z" fill="black"/>
<path d="M264.801 162.388C263.211 170.738 255.291 172.388 246.301 166.288C237.651 172.468 229.191 170.698 227.811 161.958C228.951 162.978 229.781 163.798 230.691 164.528C235.131 168.088 241.431 166.518 243.201 161.438C244.071 158.928 243.591 157.538 241.331 156.198C240.621 155.778 239.801 155.498 239.151 154.998C238.531 154.528 237.561 153.768 237.631 153.288C237.741 152.558 238.521 151.598 239.231 151.358C243.851 149.778 248.541 149.788 253.161 151.318C253.901 151.558 254.701 152.448 254.891 153.188C255.001 153.628 253.971 154.358 253.441 154.948C253.331 155.068 253.161 155.118 253.011 155.198C248.801 157.538 248.151 158.808 249.511 162.008C250.901 165.268 255.151 167.528 258.371 166.258C260.631 165.368 262.591 163.748 264.801 162.388Z" fill="black"/>
<path d="M159.861 92.2579C148.821 87.0379 138.041 87.1179 127.291 92.0079C127.441 90.1779 129.011 88.078 131.511 87.428C139.381 85.378 147.301 85.4079 155.181 87.3979C157.591 88.0079 159.051 89.8479 159.871 92.2579H159.861Z" fill="white"/>
<path d="M107.791 66.2679C107.641 75.4579 111.581 79.9879 117.381 78.9279C115.711 81.7179 112.401 82.3179 109.861 80.2979C106.291 77.4479 105.171 70.8079 107.781 66.2679H107.791Z" fill="#1DB2E1"/>
<path d="M111.931 65.218C112.931 64.498 113.951 63.198 114.931 63.238C115.811 63.268 117.371 64.838 117.301 65.598C117.201 66.618 115.921 68.128 114.961 68.288C114.091 68.438 112.961 67.058 111.951 66.348C111.951 65.968 111.951 65.598 111.941 65.218H111.931Z" fill="white"/>
<path d="M178.731 65.7279C181.431 70.3779 180.681 76.6679 177.271 79.8779C174.711 82.2879 171.421 81.9879 169.461 79.1579C176.561 78.5479 178.971 75.1679 178.731 65.7279Z" fill="#1DB2E1"/>
<path d="M168.831 65.1379C169.851 64.4379 170.911 63.1579 171.881 63.2179C172.771 63.2779 174.301 64.8879 174.211 65.6479C174.091 66.6679 172.761 68.1579 171.791 68.2979C170.921 68.4279 169.821 66.9979 168.821 66.2579C168.821 65.8879 168.821 65.5079 168.821 65.1379H168.831Z" fill="white"/>
<g filter="url(#filter0_d_9_100)">
<path fill-rule="evenodd" clip-rule="evenodd" d="M116.241 29.8379C126.951 19.0379 165.851 19.0079 176.351 29.7479H176.371C177.101 29.3648 177.824 28.9675 178.547 28.5704C180.013 27.7652 181.478 26.961 182.991 26.2779C189.281 23.4479 193.281 24.1179 198.231 28.8779C199.732 30.3192 201.187 31.8118 202.641 33.3036C205.092 35.8174 207.54 38.3287 210.201 40.5879C216.531 45.9679 223.071 51.1379 229.781 56.0279L229.786 56.0313C236.744 61.1101 243.662 66.1595 248.611 73.3679C253.151 79.9779 255.001 87.0679 252.021 94.8879C251.221 97.0079 248.881 98.0479 246.831 97.0979C246.361 96.8779 246.041 96.1179 245.851 95.5479C245.777 95.3256 245.706 95.1026 245.635 94.8791C245.23 93.6143 244.819 92.3311 243.961 91.0479C243.843 91.4646 243.715 91.8804 243.586 92.2967C243.309 93.1891 243.032 94.0842 242.861 94.9979C242.471 97.0379 241.461 98.1879 239.331 98.5879C237.796 98.8754 236.295 99.3348 234.783 99.7975C234.139 99.9947 233.493 100.193 232.841 100.378C232.196 99.5596 231.563 98.7276 230.929 97.8945C229.62 96.1721 228.307 94.4455 226.871 92.8279C221.641 86.9279 215.011 83.4879 207.251 82.2879C205.481 82.0179 205.121 81.1079 205.131 79.5779C205.143 78.2313 205.163 76.8841 205.182 75.5367C205.242 71.381 205.302 67.2237 205.151 63.0779C204.831 54.5179 200.101 48.1479 194.311 42.3979C194.261 42.3481 194.153 42.3564 193.98 42.3698C193.875 42.3779 193.746 42.3879 193.591 42.3879C193.798 43.2629 194.02 44.1297 194.241 44.993C194.715 46.843 195.184 48.6765 195.491 50.5379C197.167 60.6501 196.941 70.8295 196.715 81.0385L196.701 81.6679C196.481 91.8579 196.881 102.068 197.421 112.248C197.593 115.513 198.74 118.778 199.844 121.921C199.897 122.07 199.949 122.219 200.001 122.368C201.391 126.358 201.341 129.748 198.501 133.268C193.331 139.688 189.681 146.918 190.041 155.428C190.136 157.691 190.752 159.939 191.365 162.178C191.589 162.995 191.813 163.812 192.011 164.628C192.109 165.026 192.369 165.39 192.688 165.837C192.857 166.075 193.044 166.336 193.231 166.638C192.6 167.975 191.981 169.389 191.345 170.844C189.845 174.273 188.25 177.921 186.171 181.278C184.349 184.213 182.152 186.92 179.942 189.642C178.599 191.297 177.252 192.958 175.981 194.678C185.481 189.588 194.711 184.128 201.761 175.348C202.311 176.146 202.843 176.923 203.373 177.696C204.037 178.665 204.697 179.627 205.381 180.618C205.035 181.002 204.677 181.382 204.319 181.762C203.455 182.678 202.586 183.601 201.851 184.618C193.561 196.108 189.231 209.098 187.541 223.058C187.521 223.308 187.521 223.558 187.521 223.808C187.501 228.527 187.491 228.528 183.027 229.206L182.881 229.228C182.31 229.316 181.739 229.403 181.168 229.49C177.046 230.118 172.916 230.747 168.841 231.608C163.761 232.678 158.681 232.818 153.551 232.588C154.118 231.996 154.674 231.414 155.221 230.841C156.665 229.329 158.055 227.873 159.461 226.438C164.351 221.448 163.731 210.388 157.291 204.448C156.53 203.748 155.981 202.817 155.431 201.884C155.172 201.444 154.913 201.004 154.631 200.588C155.088 200.368 155.537 200.124 155.986 199.88C156.945 199.36 157.903 198.841 158.931 198.548C167.631 196.068 174.381 191.178 178.551 183.038C179.361 181.458 179.781 179.678 180.191 177.878C170.661 185.938 159.311 186.818 147.691 186.928C139.411 187.008 131.131 186.898 123.311 183.868C120.746 182.871 118.323 181.514 115.909 180.163C114.812 179.549 113.717 178.936 112.611 178.358C114.211 185.838 118.961 191.258 125.901 195.058C123.591 196.418 118.711 195.908 117.011 194.128C111.131 187.948 105.741 181.488 102.591 173.328C101.418 170.286 99.9093 167.379 98.3988 164.47C97.3717 162.491 96.344 160.512 95.4211 158.488C94.5111 156.488 93.8311 154.258 93.6511 152.078C93.4923 150.197 93.3211 148.315 93.1499 146.433C92.4911 139.188 91.8314 131.935 91.8711 124.688C91.9015 119.487 92.747 114.275 93.59 109.078C93.8558 107.44 94.1214 105.803 94.3611 104.168C95.7811 94.5879 96.2811 85.0279 95.8811 75.3079C95.4411 64.5179 95.5811 53.6279 99.2511 43.1979C99.2923 43.0684 99.285 42.9251 99.272 42.6701C99.2629 42.4918 99.2511 42.2589 99.2511 41.9379C98.9751 42.1151 98.7188 42.2609 98.4843 42.3944C98.0305 42.6527 97.658 42.8647 97.3811 43.1679C91.3111 49.7579 86.6511 56.8279 87.3911 66.4879C88.7411 83.9679 85.3611 100.838 79.8411 117.308C78.7497 120.554 76.9016 123.574 75.092 126.532C74.9949 126.691 74.8979 126.85 74.8011 127.008C74.2251 127.957 73.3138 128.703 72.3224 129.516C71.8509 129.902 71.3613 130.303 70.8811 130.748C70.6583 130.386 70.4647 130.069 70.2898 129.783C69.9232 129.183 69.639 128.718 69.3411 128.258C68.0119 126.205 66.667 124.161 65.322 122.118C62.0023 117.073 58.6827 112.029 55.6011 106.848C53.8774 103.956 52.5645 100.818 51.2532 97.6844C50.7692 96.5275 50.2853 95.3712 49.7811 94.2279C49.5087 93.5989 49.3583 92.9194 49.169 92.0641C49.0663 91.6004 48.9523 91.085 48.8011 90.4979C46.5511 94.8279 46.2911 98.8679 46.6811 103.488C46.4069 103.245 46.1664 103.044 45.9534 102.866C45.5527 102.532 45.2492 102.278 45.0011 101.978C38.3011 93.9679 37.5411 84.2679 42.9111 75.2779C46.9311 68.5579 52.4811 63.1579 58.9611 59.0479C71.7411 50.9379 82.6611 40.7679 93.2911 30.1479C100.161 23.2879 104.661 22.9879 113.121 27.9079C113.821 28.3171 114.512 28.7525 115.194 29.1824C115.545 29.4038 115.894 29.6237 116.241 29.8379ZM235.398 109.613C236.001 110.07 236.631 110.506 237.262 110.943C238.67 111.916 240.083 112.894 241.221 114.128C244.321 117.478 246.021 121.288 243.631 125.948C242.991 127.208 242.891 128.838 242.881 130.298C242.87 131.532 242.976 132.767 243.082 134.001C243.161 134.927 243.241 135.852 243.271 136.778C243.561 145.678 240.251 149.418 231.441 150.528C227.901 150.978 224.341 151.538 220.901 152.458C217.001 153.498 213.951 155.848 211.781 159.378C207.731 165.968 209.201 172.038 213.551 177.678C224.651 192.058 247.551 201.998 269.611 190.238C277.011 186.288 283.521 181.348 287.491 173.718C289.791 169.308 289.971 164.878 287.461 160.358C284.431 154.898 279.451 152.558 273.721 151.418C272.071 151.09 270.4 150.855 268.728 150.62C266.935 150.368 265.141 150.115 263.371 149.748C258.751 148.778 256.081 145.748 255.661 141.098C255.516 139.506 255.576 137.894 255.636 136.281C255.688 134.894 255.74 133.505 255.661 132.128C255.575 130.622 255.298 129.128 255.021 127.634C254.849 126.706 254.677 125.778 254.551 124.848C254.508 124.535 254.459 124.219 254.41 123.901C254.205 122.583 253.996 121.237 254.221 119.988C254.961 115.858 257.641 113.058 261.201 111.038C261.941 110.618 262.681 110.208 263.551 109.728C254.404 103.01 243.297 103.348 235.398 109.613ZM87.9293 171.569C88.0907 171.395 88.2764 171.193 88.4911 170.948H88.5111C94.6403 182.461 105.092 188.399 115.513 194.32L115.721 194.438C117.611 195.508 120.001 196.398 122.081 196.258C125.252 196.038 128.134 196.942 131.012 197.844C132.707 198.376 134.401 198.908 136.151 199.208C136.951 199.348 138.171 200.388 138.171 201.008C138.171 201.888 137.391 202.988 136.641 203.618C131.081 208.288 128.861 214.148 130.531 221.218C131.501 225.338 134.351 228.318 137.591 230.898C138.006 231.232 138.443 231.536 139.016 231.933C139.3 232.13 139.617 232.35 139.981 232.608C134.291 233.068 129.251 232.648 124.191 231.658C117.261 230.298 110.291 229.098 103.291 228.148C101.212 227.871 99.0752 228.009 96.9415 228.146C96.1498 228.197 95.3586 228.248 94.5711 228.278C90.6211 228.428 87.2011 227.248 84.3711 224.438C82.0111 222.088 79.3611 220.438 75.8911 220.118C73.6111 219.908 72.4311 218.448 72.6211 215.958C73.8011 200.198 78.9211 185.778 87.2311 172.418C87.3959 172.148 87.6172 171.908 87.9293 171.569ZM281.891 193.624C281.013 194.319 280.171 195.047 279.338 195.767C277.554 197.309 275.81 198.816 273.831 199.898C263.711 205.448 252.751 207.038 241.421 205.298C232.091 203.868 223.171 201.298 217.111 193.148C217.071 193.088 216.831 193.178 216.741 193.188C216.741 193.995 216.737 194.802 216.732 195.607C216.723 197.216 216.714 198.822 216.741 200.428C216.861 207.048 219.461 212.478 224.501 216.818C226.511 218.548 228.421 220.478 229.991 222.598C232.421 225.888 235.651 227.868 239.501 228.528C243.741 229.248 248.101 229.878 252.361 229.658C259.231 229.298 265.691 227.548 269.801 221.128C270.761 219.618 272.231 218.368 273.661 217.238C281.469 211.069 282.271 202.541 281.891 193.624ZM210.102 119.562C209.336 120.39 208.555 121.234 207.741 122.088C204.341 112.958 202.161 103.888 205.701 94.3379C206.401 92.4379 207.211 91.9179 209.161 92.6979C215.451 95.1979 219.951 99.7179 223.511 105.268C223.861 105.818 223.671 107.268 223.191 107.698C221.971 108.79 220.684 109.811 219.396 110.833C217.961 111.971 216.525 113.109 215.181 114.348C213.43 115.968 211.803 117.726 210.102 119.562ZM291.394 120.24C291.156 120.949 290.906 121.696 290.641 122.498L290.631 122.488C286.271 116.158 280.851 111.918 275.381 107.708C274.911 107.348 274.611 105.988 274.911 105.538C278.501 100.018 282.911 95.3779 289.161 92.7779C291.181 91.9479 292.151 92.4379 292.861 94.4979C295.321 101.638 295.051 108.728 292.831 115.838C292.395 117.249 291.926 118.65 291.394 120.24ZM137.041 215.048C137.051 209.248 140.891 205.238 146.431 205.258V205.268C151.711 205.288 155.821 209.678 155.741 215.238C155.661 220.548 151.411 224.868 146.271 224.848C141.131 224.828 137.041 220.478 137.041 215.048ZM195.748 223.873C196.426 222.519 197.09 221.192 197.743 219.886C199.673 216.03 201.513 212.355 203.341 208.668C203.469 208.411 203.496 208.108 203.523 207.807C203.533 207.686 203.544 207.565 203.561 207.448L205.451 193.348C205.561 192.519 205.691 191.699 205.821 190.88L205.821 190.878C201.055 197.003 194.702 218.023 195.748 223.873ZM303.141 223.168C302.131 211.768 298.511 201.178 293.251 190.338C293.071 202.818 296.931 213.338 303.141 223.168ZM269.471 145.628C265.901 145.048 263.521 142.618 262.991 138.758V138.748C270.861 144.178 275.181 142.438 276.641 133.488C278.411 135.148 278.741 138.408 277.411 141.168C275.941 144.228 272.541 146.138 269.471 145.628ZM235.39 138.683C232.961 141.928 229.536 141.947 226.271 141.288C222.584 140.547 222.348 137.499 222.104 134.354C222.065 133.848 222.025 133.34 221.971 132.838C219.841 136.238 219.951 139.828 221.991 142.568C223.791 144.988 226.931 146.168 229.701 145.478C233.057 144.639 235.136 142.324 235.39 138.683ZM206.241 133.738L195.531 155.278C195.721 146.478 199.271 139.288 205.421 133.338C205.589 133.416 205.753 133.497 205.916 133.578C206.025 133.632 206.133 133.686 206.241 133.738ZM296.619 142.462C295.176 139.571 293.743 136.7 292.311 133.828C298.071 136.788 304.111 148.998 303.081 155.418C300.89 151.017 298.744 146.719 296.619 142.462ZM272.561 133.568L272.531 134.678C272.214 134.89 271.9 135.149 271.587 135.407C270.882 135.987 270.175 136.569 269.421 136.638C267.841 136.778 266.711 135.378 267.131 133.858C267.401 132.868 268.731 131.508 269.591 131.508C270.279 131.508 270.967 132.145 271.654 132.782C271.957 133.062 272.259 133.342 272.561 133.568ZM231.971 133.448V134.548L231.981 134.558C231.676 134.783 231.377 135.053 231.077 135.322C230.394 135.937 229.709 136.554 228.951 136.658C227.371 136.868 226.211 135.478 226.551 133.968C226.771 132.958 228.051 131.538 228.911 131.508C229.606 131.48 230.331 132.097 231.054 132.713C231.36 132.975 231.667 133.236 231.971 133.448ZM82.0012 130.358C82.0012 130.358 79.0013 140.483 70.5012 138.358C62.0011 136.233 34.5012 99.3579 34.5012 99.3579C34.5012 99.3579 33.1271 97.3579 32.0012 92.8579C30.8753 88.3579 33.0013 75.3579 38.501 66.8579C42.3294 60.941 52.5518 53.1948 60.3695 47.2708C63.7825 44.6846 66.7371 42.4457 68.5013 40.8579C70.5538 39.0107 73.6736 35.9276 77.1688 32.4736C82.1881 27.5134 87.9818 21.7879 92.5013 17.8579C96.5013 13.1913 111.801 12.2579 115.001 17.8579C116.699 20.8286 120.816 19.6626 126.996 17.9128C132.465 16.3641 139.55 14.3579 148.001 14.3579C158.418 14.3579 163.684 16.0379 167.538 17.2674C171.084 18.3986 173.435 19.1484 177.501 17.8579C188.266 14.4415 198.161 15.2536 203.001 20.8579C207.81 26.4258 217.615 34.8121 227.682 43.4229C237.504 51.8237 247.575 60.4382 253.501 66.8579C258.893 72.6989 260.874 78.3848 262.357 82.6426C263.341 85.4662 264.105 87.6617 265.501 88.8579C270.789 93.3898 278.53 90.294 285.235 87.6129C287.484 86.7133 289.617 85.8604 291.501 85.3579C299.001 83.3579 301.501 91.3579 301.501 91.3579C301.501 91.3579 298.501 111.858 301.501 124.358C302.8 129.769 304.728 132.844 306.606 135.838C308.878 139.462 311.078 142.969 312.001 150.358C312.93 157.791 310.859 163.441 308.915 168.741C306.676 174.849 304.607 180.49 307.501 187.858C313.001 201.858 316.001 220.858 316.001 220.858L318.001 236.358H57.5013C57.5013 236.358 59.7915 211.167 64.5013 195.358C66.5568 188.458 69.312 183.335 72.0011 178.334C75.1831 172.416 78.2726 166.671 80.0012 158.358C82.2331 147.625 82.0012 130.358 82.0012 130.358Z" fill="#220C04"/>
</g>
<path d="M133.684 133.358C133.684 133.358 143.129 134.945 154.981 133.358C155.748 137.906 159.961 147.876 156.9 154.119C153.552 160.949 132.418 161.7 130.378 152.781C128.601 148.603 133.684 133.358 133.684 133.358Z" fill="#FC5454"/>
<path d="M144.501 143.858C144.501 143.858 148.91 137.358 148.501 132.858C148.092 128.358 141.001 128.358 141.001 132.858C141.001 137.358 144.501 143.858 144.501 143.858Z" fill="black" stroke="black"/>
<path d="M130.564 286.614C130.741 302.896 117.147 316.113 99.981 316.358C83.3968 316.592 69.3464 303.253 69.141 287.078C68.9355 270.945 82.5636 257.899 99.7584 257.776C116.628 257.654 130.393 270.54 130.57 286.614H130.564ZM113.552 298.158C113.187 297.577 112.616 296.25 111.652 295.248C109.945 293.468 108.016 291.869 106.15 290.227C102.703 287.195 98.8738 286.769 95.0559 289.364C92.6191 291.022 90.4961 293.1 88.3104 295.061C85.9249 297.198 85.5654 299.618 87.2033 301.654C88.9039 303.764 92.1397 304.606 94.588 303.056C98.4344 300.615 101.864 300.929 105.694 303.13C109.021 305.043 113.609 302.448 113.552 298.163V298.158ZM105.001 277.858C105.174 275.865 105.001 274.358 104.501 272.358C104.001 270.358 101.996 269.347 99.5473 269.464C97.1504 269.581 95.4611 271.148 95.2157 273.109C94.9018 275.55 95.0217 278.225 95.7921 280.554C96.8194 283.656 101.094 284.296 103.371 281.775C104.638 280.373 104.845 279.654 105.001 277.858ZM118.066 282.542C118.14 278.982 116.326 276.595 113.529 276.584C110.293 276.568 107.428 279.83 107.297 283.683C107.2 286.454 109.609 289.119 112.285 289.204C115.441 289.305 117.986 286.369 118.066 282.542ZM81.582 281.94C81.9301 283.209 82.1127 284.546 82.6606 285.729C83.899 288.394 86.5983 289.668 89.0523 288.938C91.4206 288.234 92.796 285.943 92.2995 283.118C92.0884 281.924 91.5747 280.73 90.9641 279.654C89.7828 277.559 88.0707 275.971 85.2857 276.696C82.5864 277.399 81.7988 279.457 81.5763 281.935L81.582 281.94Z" fill="#220C04"/>
<path d="M29.0044 261.469V275.944C30.1972 276.008 31.2986 276.114 32.4057 276.114C37.7303 276.12 43.0548 276.05 48.3736 276.104C53.1388 276.152 56.2034 278.806 56.2662 282.771C56.329 286.677 53.5669 289.193 48.6475 289.331C43.3287 289.481 38.0042 289.385 32.6797 289.395C31.5497 289.395 30.4197 289.395 28.9531 289.395C28.8903 290.525 28.799 291.458 28.799 292.396C28.7704 298.077 28.8218 303.758 28.7305 309.44C28.6848 312.365 27.5663 314.833 24.4846 316.128C21.6939 317.301 18.8519 317.039 16.8031 315.073C15.4106 313.74 14.1037 311.63 14.0923 309.855C13.9325 291.394 14.0067 272.933 14.1152 254.466C14.138 250.293 16.6205 248.087 21.1004 248.065C34.2205 248.001 47.3407 247.953 60.4551 248.081C62.4182 248.103 64.6211 248.753 66.2761 249.744C68.7472 251.22 69.6089 254.701 68.7015 257.147C67.7542 259.694 65.1233 261.416 61.8133 261.432C52.0203 261.48 42.233 261.464 32.44 261.469C31.407 261.469 30.3798 261.469 28.9987 261.469H29.0044Z" fill="#220C04"/>
<path d="M231.16 294.251C232.923 300.529 239.925 304.388 246.277 302.842C247.561 302.528 248.811 302.085 250.089 301.744C253.787 300.753 256.635 301.824 258.244 304.788C259.888 307.815 259.192 310.964 256.047 313.016C249.079 317.562 241.426 317.845 233.722 315.207C220.048 310.527 212.875 297.699 215.203 283.038C216.236 276.536 219.061 270.999 224.34 266.644C236.056 256.987 253.725 261.054 258.747 274.831C260.202 278.822 260.527 283.342 260.464 287.605C260.402 291.938 257.16 294.246 252.52 294.267C246.34 294.299 240.159 294.256 233.973 294.251C233.066 294.251 232.153 294.251 231.16 294.251ZM230.589 283.438H245.918C245.975 278.524 242.767 274.974 238.385 274.857C234.19 274.74 230.76 278.455 230.589 283.438Z" fill="#220C04"/>
<path d="M158.665 317.05C151.212 316.773 144.409 314.577 137.84 311.683C135.078 310.463 134.051 308.049 134.701 305.469C135.512 302.255 138.451 299.692 141.755 299.937C144.158 300.113 146.475 301.131 148.86 301.643C152.433 302.41 156.011 303.295 159.641 303.652C161.153 303.801 163.03 303.023 164.337 302.138C166.957 300.363 166.689 296.979 163.852 295.546C161.872 294.549 159.646 293.957 157.495 293.27C154.173 292.209 150.726 291.437 147.502 290.157C134.211 284.903 132.008 271.749 142.828 262.769C150.338 256.539 164.32 255.521 172.772 260.59C175.654 262.316 176.39 264.933 174.781 267.71C172.076 272.368 170.432 272.826 164.959 271.291C162.192 270.518 159.213 270.113 156.325 270.076C153.802 270.044 151.742 271.355 151.28 273.956C150.818 276.525 152.747 277.697 154.853 278.433C158.847 279.834 162.945 280.985 166.963 282.339C173.731 284.625 179.17 288.244 180.648 295.338C182.582 304.6 176.91 312.904 166.751 315.648C164.132 316.357 161.364 316.592 158.67 317.045L158.665 317.05Z" fill="#220C04"/>
<path d="M326.153 317.05C318.7 316.773 311.897 314.577 305.329 311.683C302.566 310.463 301.539 308.049 302.19 305.469C303 302.255 305.939 299.692 309.243 299.937C311.646 300.113 313.963 301.131 316.349 301.643C319.921 302.41 323.499 303.295 327.129 303.652C328.641 303.801 330.519 303.023 331.826 302.138C334.445 300.363 334.177 296.979 331.341 295.546C329.36 294.549 327.135 293.957 324.983 293.27C321.662 292.209 318.215 291.437 314.99 290.157C301.699 284.903 299.496 271.749 310.316 262.769C317.827 256.539 331.809 255.521 340.26 260.59C343.142 262.316 343.879 264.933 342.269 267.71C339.564 272.368 337.921 272.826 332.448 271.291C329.68 270.518 326.701 270.113 323.813 270.076C321.291 270.044 319.231 271.355 318.768 273.956C318.306 276.525 320.235 277.697 322.341 278.433C326.336 279.834 330.433 280.985 334.451 282.339C341.219 284.625 346.658 288.244 348.136 295.338C350.071 304.6 344.398 312.904 334.24 315.648C331.62 316.357 328.852 316.592 326.159 317.045L326.153 317.05Z" fill="#220C04"/>
<path d="M189.984 260.139C189.984 257.474 189.945 254.735 189.996 251.995C190.064 248.089 192.849 245.445 196.918 245.36C201.216 245.269 204.463 248.014 204.634 251.958C204.725 253.999 204.782 256.051 204.657 258.082C204.537 259.984 205.365 260.645 207.316 260.459C208.252 260.373 209.234 260.416 210.158 260.576C213.697 261.173 216.23 264.125 215.894 267.174C215.511 270.675 212.823 273.015 209.074 273.079C207.761 273.1 206.449 273.079 204.954 273.079C204.857 273.915 204.703 274.592 204.703 275.274C204.685 282.288 204.668 289.307 204.703 296.321C204.725 300.68 205.958 302.188 210.375 303.483C211.009 303.67 211.654 303.824 212.27 304.048C215.723 305.322 217.503 307.827 217.252 311.03C217.058 313.524 214.735 315.821 211.551 316.674C204.297 318.614 195.828 314.995 192.444 307.944C191.012 304.96 190.258 301.485 190.127 298.202C189.808 289.963 190.019 281.707 190.019 273.111C185.202 273.324 180.842 272.839 180.734 267.126C180.654 262.809 181.664 262.063 189.973 260.123L189.984 260.139Z" fill="#220C04"/>
<path d="M279.811 265.475C283.771 262.842 288.154 261.281 293.073 261.361C298.598 261.451 301.674 264.958 300.509 269.733C299.773 272.75 298.147 274.082 294.825 274.386C284.861 275.297 280.045 280.201 280.01 289.538C279.982 296.551 280.033 303.565 280.01 310.579C279.999 315.066 277.134 317.773 272.466 317.795C267.935 317.816 265.258 315.189 265.264 310.675C265.287 297.09 265.344 283.51 265.349 269.925C265.349 266.584 265.675 263.375 269.55 261.947C273.499 260.497 276.552 262.07 279.074 264.905C279.251 265.102 279.502 265.241 279.811 265.47V265.475Z" fill="#220C04"/>
<path d="M108.43 343.963C108.831 343.562 109.282 343.337 109.783 343.287C110.309 343.211 110.785 343.274 111.21 343.474C111.636 343.675 111.962 344 112.187 344.451C112.438 344.877 112.5 345.39 112.375 345.992C112.225 346.593 111.937 347.156 111.511 347.682C111.085 348.183 110.659 348.646 110.234 349.072C109.257 350.099 108.167 350.85 106.965 351.326C105.788 351.827 104.586 352.065 103.359 352.04C102.156 352.015 100.967 351.727 99.7895 351.176C98.6374 350.625 97.598 349.798 96.6713 348.696C96.1203 348.045 95.6569 347.357 95.2812 346.63C94.9055 345.904 94.6175 345.14 94.4171 344.338C94.1166 343.161 93.9788 341.934 94.0039 340.657C94.0289 339.379 94.2293 338.14 94.605 336.937C94.9807 335.735 95.5066 334.608 96.1829 333.556C96.8842 332.479 97.7357 331.565 98.7376 330.814C99.4639 330.263 100.19 329.787 100.917 329.386C101.668 328.985 102.457 328.61 103.283 328.259C103.759 328.059 104.248 327.871 104.749 327.695C105.25 327.495 105.763 327.345 106.289 327.245C106.815 327.144 107.341 327.107 107.867 327.132C108.393 327.157 108.906 327.27 109.407 327.47C109.758 327.62 110.108 327.833 110.459 328.109C110.81 328.359 111.135 328.66 111.436 329.01C111.736 329.336 111.999 329.687 112.225 330.062C112.45 330.438 112.613 330.801 112.713 331.152C112.788 331.477 112.801 331.815 112.751 332.166C112.726 332.492 112.626 332.792 112.45 333.068C112.3 333.343 112.087 333.581 111.812 333.782C111.536 333.957 111.223 334.07 110.872 334.12C110.296 334.195 109.845 334.132 109.52 333.932C109.219 333.731 108.969 333.481 108.769 333.18C108.593 332.88 108.418 332.592 108.243 332.316C108.067 332.016 107.817 331.803 107.491 331.678C107.291 331.678 107.141 331.69 107.04 331.715C106.189 331.941 105.325 332.254 104.448 332.654C103.597 333.03 102.795 333.494 102.044 334.045C101.317 334.596 100.679 335.234 100.128 335.961C99.5766 336.687 99.1759 337.501 98.9254 338.403C98.6249 339.48 98.5122 340.569 98.5873 341.671C98.6624 342.773 98.963 343.812 99.4889 344.789C99.7895 345.365 100.19 345.866 100.691 346.292C101.192 346.718 101.743 347.043 102.344 347.269C102.945 347.469 103.559 347.544 104.185 347.494C104.811 347.419 105.412 347.194 105.988 346.818C106.489 346.467 106.94 346.042 107.341 345.541C107.742 345.015 108.105 344.489 108.43 343.963Z" fill="#220C04"/>
<path d="M140.968 340.995C140.542 342.397 139.991 343.775 139.315 345.127C138.664 346.455 137.862 347.645 136.91 348.696C135.959 349.748 134.844 350.6 133.567 351.251C132.314 351.902 130.874 352.228 129.246 352.228C128.194 352.178 127.355 352.078 126.729 351.927C126.128 351.802 125.54 351.602 124.963 351.326C123.937 351.026 123.047 350.55 122.296 349.899C121.57 349.222 120.956 348.446 120.455 347.569C119.954 346.693 119.566 345.766 119.291 344.789C119.04 343.787 118.877 342.823 118.802 341.896C118.677 340.268 118.815 338.615 119.215 336.937C119.616 335.259 120.255 333.719 121.131 332.316C122.008 330.889 123.11 329.674 124.437 328.672C125.765 327.645 127.28 326.969 128.983 326.643C129.86 326.493 130.749 326.443 131.651 326.493C132.552 326.543 133.429 326.719 134.281 327.019C134.982 327.27 135.633 327.558 136.234 327.883C136.835 328.209 137.411 328.622 137.962 329.123C138.689 329.774 139.302 330.526 139.803 331.377C140.304 332.229 140.667 333.118 140.893 334.045C141.168 335.222 141.293 336.386 141.268 337.538C141.243 338.691 141.143 339.843 140.968 340.995ZM131.237 347.344C131.989 347.018 132.64 346.593 133.191 346.067C133.767 345.516 134.268 344.915 134.694 344.263C135.12 343.612 135.47 342.923 135.746 342.197C136.046 341.446 136.309 340.694 136.535 339.943C136.685 338.991 136.76 338.014 136.76 337.012C136.785 336.011 136.585 335.059 136.159 334.157C135.808 333.406 135.27 332.767 134.544 332.241C133.842 331.69 133.066 331.315 132.214 331.114C131.363 330.889 130.499 330.839 129.622 330.964C128.77 331.089 128.007 331.427 127.33 331.978C126.379 332.78 125.602 333.681 125.001 334.683C124.425 335.66 123.987 336.75 123.686 337.952C123.436 338.903 123.298 339.905 123.273 340.957C123.248 342.009 123.411 343.011 123.761 343.963C124.037 344.664 124.437 345.303 124.963 345.879C125.514 346.455 126.128 346.906 126.804 347.231C127.481 347.557 128.194 347.745 128.946 347.795C129.722 347.82 130.486 347.67 131.237 347.344Z" fill="#220C04"/>
<path d="M163.789 328.296C163.94 327.796 164.178 327.382 164.503 327.057C164.854 326.731 165.229 326.518 165.63 326.418C166.031 326.318 166.432 326.343 166.832 326.493C167.258 326.643 167.621 326.944 167.922 327.395C168.022 327.52 168.11 327.67 168.185 327.846C168.285 328.021 168.335 328.184 168.335 328.334C168.385 331.916 168.36 335.497 168.26 339.079C168.185 342.635 168.047 346.204 167.847 349.786C167.847 350.362 167.659 350.813 167.283 351.138C166.933 351.464 166.519 351.664 166.043 351.74C165.593 351.84 165.129 351.79 164.653 351.589C164.178 351.414 163.827 351.101 163.601 350.65C163.576 350.625 163.564 350.6 163.564 350.575V350.65C161.936 347.97 160.22 345.403 158.417 342.948C156.614 340.469 154.735 338.014 152.782 335.585V344.075C152.782 345.228 152.782 346.192 152.782 346.968C152.782 347.745 152.769 348.383 152.744 348.884C152.719 349.36 152.681 349.736 152.631 350.011C152.606 350.287 152.556 350.525 152.481 350.725C152.256 351.326 151.905 351.727 151.429 351.927C150.978 352.128 150.515 352.178 150.039 352.078C149.563 351.978 149.15 351.727 148.799 351.326C148.449 350.926 148.273 350.425 148.273 349.824C148.273 349.473 148.273 348.922 148.273 348.171C148.273 347.419 148.273 346.568 148.273 345.616C148.273 344.664 148.273 343.65 148.273 342.573C148.273 341.471 148.273 340.394 148.273 339.342C148.273 338.29 148.261 337.313 148.236 336.411C148.236 335.485 148.236 334.708 148.236 334.082C148.236 333.231 148.223 332.392 148.198 331.565C148.173 330.713 148.173 329.862 148.198 329.01C148.198 328.585 148.298 328.221 148.499 327.921C148.724 327.62 149 327.395 149.325 327.245C149.651 327.069 150.001 326.969 150.377 326.944C150.753 326.919 151.116 326.969 151.467 327.094C151.767 327.194 152.068 327.407 152.368 327.733C152.694 328.033 153.007 328.372 153.308 328.747C153.608 329.098 153.884 329.461 154.134 329.837C154.41 330.187 154.635 330.475 154.81 330.701C155.461 331.502 156.213 332.429 157.064 333.481C157.916 334.508 158.705 335.485 159.431 336.411C160.158 337.363 160.859 338.315 161.535 339.267C162.236 340.218 162.913 341.17 163.564 342.122C163.639 339.843 163.689 337.576 163.714 335.322C163.739 333.068 163.752 330.801 163.752 328.522L163.789 328.296Z" fill="#220C04"/>
<path d="M190.865 328.296C191.016 327.796 191.254 327.382 191.579 327.057C191.93 326.731 192.306 326.518 192.706 326.418C193.107 326.318 193.508 326.343 193.909 326.493C194.334 326.643 194.698 326.944 194.998 327.395C195.098 327.52 195.186 327.67 195.261 327.846C195.361 328.021 195.411 328.184 195.411 328.334C195.461 331.916 195.436 335.497 195.336 339.079C195.261 342.635 195.123 346.204 194.923 349.786C194.923 350.362 194.735 350.813 194.359 351.138C194.009 351.464 193.595 351.664 193.12 351.74C192.669 351.84 192.205 351.79 191.73 351.589C191.254 351.414 190.903 351.101 190.678 350.65C190.653 350.625 190.64 350.6 190.64 350.575V350.65C189.012 347.97 187.296 345.403 185.493 342.948C183.69 340.469 181.811 338.014 179.858 335.585V344.075C179.858 345.228 179.858 346.192 179.858 346.968C179.858 347.745 179.845 348.383 179.82 348.884C179.795 349.36 179.758 349.736 179.707 350.011C179.682 350.287 179.632 350.525 179.557 350.725C179.332 351.326 178.981 351.727 178.505 351.927C178.054 352.128 177.591 352.178 177.115 352.078C176.639 351.978 176.226 351.727 175.875 351.326C175.525 350.926 175.349 350.425 175.349 349.824C175.349 349.473 175.349 348.922 175.349 348.171C175.349 347.419 175.349 346.568 175.349 345.616C175.349 344.664 175.349 343.65 175.349 342.573C175.349 341.471 175.349 340.394 175.349 339.342C175.349 338.29 175.337 337.313 175.312 336.411C175.312 335.485 175.312 334.708 175.312 334.082C175.312 333.231 175.299 332.392 175.274 331.565C175.249 330.713 175.249 329.862 175.274 329.01C175.274 328.585 175.374 328.221 175.575 327.921C175.8 327.62 176.076 327.395 176.401 327.245C176.727 327.069 177.078 326.969 177.453 326.944C177.829 326.919 178.192 326.969 178.543 327.094C178.843 327.194 179.144 327.407 179.444 327.733C179.77 328.033 180.083 328.372 180.384 328.747C180.684 329.098 180.96 329.461 181.21 329.837C181.486 330.187 181.711 330.475 181.886 330.701C182.538 331.502 183.289 332.429 184.141 333.481C184.992 334.508 185.781 335.485 186.507 336.411C187.234 337.363 187.935 338.315 188.611 339.267C189.313 340.218 189.989 341.17 190.64 342.122C190.715 339.843 190.765 337.576 190.79 335.322C190.815 333.068 190.828 330.801 190.828 328.522L190.865 328.296Z" fill="#220C04"/>
<path d="M216.476 345.916C216.927 345.941 217.315 346.067 217.641 346.292C217.992 346.492 218.267 346.743 218.468 347.043C218.693 347.344 218.818 347.695 218.843 348.095C218.893 348.471 218.818 348.859 218.618 349.26C218.543 349.435 218.38 349.648 218.129 349.899C217.904 350.124 217.691 350.262 217.491 350.312C215.888 350.788 214.235 351.076 212.532 351.176C210.854 351.301 209.188 351.276 207.535 351.101C207.059 351.051 206.533 351.001 205.957 350.951C205.406 350.901 204.918 350.738 204.492 350.462C203.716 349.961 203.327 349.247 203.327 348.321V332.316C203.052 332.116 202.826 331.866 202.651 331.565C202.476 331.264 202.363 330.951 202.313 330.626C202.288 330.275 202.338 329.95 202.463 329.649C202.588 329.323 202.801 329.048 203.102 328.822C203.603 328.422 204.179 328.159 204.83 328.033C205.481 327.883 206.12 327.758 206.746 327.658C208.048 327.457 209.351 327.357 210.653 327.357C211.956 327.357 213.283 327.345 214.636 327.32C215.036 327.32 215.5 327.295 216.026 327.245C216.552 327.169 217.015 327.207 217.416 327.357C217.892 327.533 218.267 327.808 218.543 328.184C218.818 328.559 218.981 328.96 219.031 329.386C219.081 329.812 218.994 330.225 218.768 330.626C218.568 331.026 218.205 331.34 217.679 331.565C217.053 331.815 216.376 331.928 215.65 331.903C214.949 331.878 214.272 331.866 213.621 331.866C212.669 331.866 211.718 331.878 210.766 331.903C209.814 331.928 208.862 332.003 207.911 332.129V337.351C208.812 337.401 209.714 337.401 210.616 337.351C211.517 337.301 212.419 337.238 213.321 337.163C213.721 337.138 214.122 337.1 214.523 337.05C214.924 337 215.337 337 215.763 337.05C216.314 337.125 216.739 337.351 217.04 337.726C217.341 338.102 217.516 338.528 217.566 339.004C217.641 339.454 217.566 339.905 217.341 340.356C217.115 340.807 216.752 341.133 216.251 341.333C215.825 341.508 215.249 341.646 214.523 341.746C213.797 341.821 213.033 341.884 212.231 341.934C211.43 341.959 210.641 341.972 209.864 341.972C209.088 341.972 208.437 341.959 207.911 341.934V346.555C209.288 346.73 210.678 346.755 212.081 346.63C213.483 346.505 214.861 346.267 216.213 345.916H216.476Z" fill="#220C04"/>
<path d="M239.196 343.963C239.597 343.562 240.048 343.337 240.548 343.287C241.074 343.211 241.55 343.274 241.976 343.474C242.402 343.675 242.727 344 242.953 344.451C243.203 344.877 243.266 345.39 243.141 345.992C242.99 346.593 242.702 347.156 242.277 347.682C241.851 348.183 241.425 348.646 240.999 349.072C240.023 350.099 238.933 350.85 237.731 351.326C236.554 351.827 235.351 352.065 234.124 352.04C232.922 352.015 231.732 351.727 230.555 351.176C229.403 350.625 228.364 349.798 227.437 348.696C226.886 348.045 226.423 347.357 226.047 346.63C225.671 345.904 225.383 345.14 225.183 344.338C224.882 343.161 224.744 341.934 224.769 340.657C224.795 339.379 224.995 338.14 225.371 336.937C225.746 335.735 226.272 334.608 226.949 333.556C227.65 332.479 228.501 331.565 229.503 330.814C230.23 330.263 230.956 329.787 231.682 329.386C232.434 328.985 233.223 328.61 234.049 328.259C234.525 328.059 235.013 327.871 235.514 327.695C236.015 327.495 236.529 327.345 237.055 327.245C237.581 327.144 238.107 327.107 238.632 327.132C239.158 327.157 239.672 327.27 240.173 327.47C240.523 327.62 240.874 327.833 241.225 328.109C241.575 328.359 241.901 328.66 242.202 329.01C242.502 329.336 242.765 329.687 242.99 330.062C243.216 330.438 243.379 330.801 243.479 331.152C243.554 331.477 243.567 331.815 243.516 332.166C243.491 332.492 243.391 332.792 243.216 333.068C243.066 333.343 242.853 333.581 242.577 333.782C242.302 333.957 241.989 334.07 241.638 334.12C241.062 334.195 240.611 334.132 240.286 333.932C239.985 333.731 239.735 333.481 239.534 333.18C239.359 332.88 239.183 332.592 239.008 332.316C238.833 332.016 238.582 331.803 238.257 331.678C238.056 331.678 237.906 331.69 237.806 331.715C236.954 331.941 236.09 332.254 235.214 332.654C234.362 333.03 233.561 333.494 232.809 334.045C232.083 334.596 231.444 335.234 230.893 335.961C230.342 336.687 229.942 337.501 229.691 338.403C229.39 339.48 229.278 340.569 229.353 341.671C229.428 342.773 229.729 343.812 230.255 344.789C230.555 345.365 230.956 345.866 231.457 346.292C231.958 346.718 232.509 347.043 233.11 347.269C233.711 347.469 234.325 347.544 234.951 347.494C235.577 347.419 236.178 347.194 236.754 346.818C237.255 346.467 237.706 346.042 238.107 345.541C238.507 345.015 238.87 344.489 239.196 343.963Z" fill="#220C04"/>
<path d="M266.248 327.47C266.724 327.67 267.113 327.996 267.413 328.447C267.739 328.873 267.926 329.323 267.977 329.799C268.052 330.25 267.964 330.663 267.714 331.039C267.488 331.415 267.075 331.665 266.474 331.79C265.322 331.991 264.232 332.078 263.205 332.053C262.203 332.028 261.327 332.016 260.575 332.016C260.575 335.021 260.588 337.977 260.613 340.882C260.638 343.787 260.626 346.856 260.575 350.087C260.575 350.788 260.338 351.289 259.862 351.589C259.386 351.915 258.86 352.053 258.284 352.003C257.733 351.952 257.219 351.727 256.743 351.326C256.268 350.926 256.03 350.375 256.03 349.673C256.005 346.718 255.992 343.775 255.992 340.845C255.992 337.914 255.992 334.971 255.992 332.016C255.767 332.016 255.378 332.028 254.827 332.053C254.301 332.078 253.713 332.091 253.062 332.091C252.436 332.066 251.784 332.016 251.108 331.941C250.432 331.84 249.843 331.665 249.342 331.415C248.942 331.214 248.679 330.926 248.553 330.551C248.428 330.15 248.416 329.749 248.516 329.348C248.641 328.948 248.854 328.572 249.154 328.221C249.455 327.871 249.831 327.633 250.282 327.508C252.385 327.382 254.414 327.345 256.368 327.395C258.346 327.42 260.35 327.432 262.379 327.432C262.98 327.432 263.581 327.432 264.182 327.432C264.783 327.407 265.397 327.395 266.023 327.395L266.248 327.47Z" fill="#220C04"/>
<defs>
<filter id="filter0_d_9_100" x="27.7095" y="14" width="294.292" height="230.358" filterUnits="userSpaceOnUse" color-interpolation-filters="sRGB">
<feFlood flood-opacity="0" result="BackgroundImageFix"/>
<feColorMatrix in="SourceAlpha" type="matrix" values="0 0 0 0 0 0 0 0 0 0 0 0 0 0 0 0 0 0 127 0" result="hardAlpha"/>
<feOffset dy="4"/>
<feGaussianBlur stdDeviation="2"/>
<feComposite in2="hardAlpha" operator="out"/>
<feColorMatrix type="matrix" values="0 0 0 0 0 0 0 0 0 0 0 0 0 0 0 0 0 0 0.25 0"/>
<feBlend mode="normal" in2="BackgroundImageFix" result="effect1_dropShadow_9_100"/>
<feBlend mode="normal" in="SourceGraphic" in2="effect1_dropShadow_9_100" result="shape"/>
</filter>
</defs>
</svg>
